<svg width="79" height="91" viewBox="0 0 79 91" fill="none" xmlns="http://www.w3.org/2000/svg">
<g clip-path="url(#clip0)">
<path d="M52.1559 76.8905C72.6454 69.737 83.4874 47.2382 76.3723 26.6382C69.2571 6.03814 46.8791 -4.86241 26.3896 2.29114C5.90017 9.44468 -4.94187 31.9434 2.17328 52.5435C9.28843 73.1435 31.6664 84.044 52.1559 76.8905Z" fill="url(#paint0_linear)"/>
<g style="mix-blend-mode:multiply">
<g style="mix-blend-mode:multiply">
<path d="M78.5455 39.5867C78.542 36.5385 78.1902 33.5007 77.4971 30.5332C72.3822 25.3809 61.1236 14.0714 60.9571 13.8941C60.4418 13.3125 59.8173 12.8391 59.1194 12.501C58.4216 12.1628 57.6641 11.9667 56.8906 11.9238H56.8319H25.2118V18.1697H17.9805L18.1568 65.9394L29.8955 77.9286C35.6786 79.3582 41.7092 79.4469 47.5313 78.1878C53.3534 76.9287 58.8145 74.3549 63.5014 70.6611C68.1883 66.9673 71.9783 62.2502 74.5846 56.8666C77.191 51.4831 78.5454 45.5741 78.5455 39.5867Z" fill="#B3B3B3"/>
</g>
</g>
<path d="M61.9565 59.733H25.2118V11.9042H56.822L61.9565 15.9827V59.733Z" fill="white"/>
<path d="M57.5667 19.3813H29.8367V20.4749H57.5667V19.3813Z" fill="#A8A291"/>
<path d="M57.5667 23.6963H29.8367V24.7898H57.5667V23.6963Z" fill="#A8A291"/>
<path d="M57.5667 28.0112H29.8367V29.1047H57.5667V28.0112Z" fill="#A8A291"/>
<path d="M57.5667 32.3361H29.8367V33.4296H57.5667V32.3361Z" fill="#A8A291"/>
<path d="M57.5667 36.651H29.8367V37.7445H57.5667V36.651Z" fill="#A8A291"/>
<path d="M57.5667 40.9758H29.8367V42.0693H57.5667V40.9758Z" fill="#A8A291"/>
<path d="M57.5667 45.2908H29.8367V46.3843H57.5667V45.2908Z" fill="#A8A291"/>
<path d="M57.5667 49.6155H29.8367V50.709H57.5667V49.6155Z" fill="#A8A291"/>
<path d="M57.5667 53.9304H29.8367V55.0239H57.5667V53.9304Z" fill="#A8A291"/>
<path d="M56.3909 11.9238L57.988 16.4456L61.9075 16.0023C61.9075 16.0023 61.4861 12.1997 56.3909 11.9238Z" fill="#D9D9D9"/>
<path d="M54.7252 65.9886H17.9805V18.1499H49.6005L54.7252 22.2383V65.9886Z" fill="#E8E8E8"/>
<path d="M50.3353 25.6272H22.6053V26.7207H50.3353V25.6272Z" fill="#A8A291"/>
<path d="M50.3353 29.9421H22.6053V31.0356H50.3353V29.9421Z" fill="#A8A291"/>
<path d="M50.3353 34.267H22.6053V35.3605H50.3353V34.267Z" fill="#A8A291"/>
<path d="M50.3353 38.5819H22.6053V39.6754H50.3353V38.5819Z" fill="#A8A291"/>
<path d="M50.3353 42.9066H22.6053V44.0001H50.3353V42.9066Z" fill="#A8A291"/>
<path d="M50.3353 47.2216H22.6053V48.3151H50.3353V47.2216Z" fill="#A8A291"/>
<path d="M50.3353 51.5464H22.6053V52.6399H50.3353V51.5464Z" fill="#A8A291"/>
<path d="M50.3353 55.8613H22.6053V56.9548H50.3353V55.8613Z" fill="#A8A291"/>
<path d="M50.3353 60.1763H22.6053V61.2698H50.3353V60.1763Z" fill="#A8A291"/>
<path d="M49.1595 18.1499L50.7567 22.6717L54.7251 22.2383C54.7251 22.2383 54.2548 18.4553 49.1595 18.1499Z" fill="#CCCCCC"/>
<path d="M43.6875 26.0547L32.4031 53.27L34.8088 54.2783L46.0933 27.063L43.6875 26.0547Z" fill="#6B4A3B"/>
<path d="M34.8242 54.2851L32.7371 55.8811L32.4039 53.2803L34.8242 54.2851Z" fill="#E73127"/>
<path d="M42.6925 40.7196L41.7812 40.3453L45.4851 31.4297L43.8683 30.75L44.2407 29.8436L46.7687 30.8977L42.6925 40.7196Z" fill="#E73127"/>
<path d="M48.2304 52.6169C48.4805 53.3206 49.282 53.6543 49.9554 53.3329C51.0238 52.8238 52.139 53.9411 51.6313 55.0131C51.3115 55.6875 51.6436 56.4919 52.3454 56.7426C53.4606 57.1401 53.4606 58.7212 52.3454 59.1187C51.6436 59.3694 51.3107 60.173 51.6313 60.8482C52.139 61.9194 51.0246 63.0375 49.9554 62.5284C49.2828 62.2078 48.4805 62.5407 48.2304 63.2444C47.8339 64.3625 46.2569 64.3625 45.8604 63.2444C45.6104 62.5407 44.8089 62.207 44.1354 62.5284C43.067 63.0375 41.9518 61.9202 42.4595 60.8482C42.7794 60.1738 42.4473 59.3694 41.7455 59.1187C40.6303 58.7212 40.6303 57.1401 41.7455 56.7426C42.4473 56.4919 42.7801 55.6883 42.4595 55.0131C41.9518 53.9419 43.0662 52.8238 44.1354 53.3329C44.8081 53.6535 45.6104 53.3206 45.8604 52.6169C46.2569 51.4996 47.8339 51.4996 48.2304 52.6169Z" fill="#EBBA16"/>
<path d="M49.7617 62.5597C49.1331 62.2538 48.385 62.5714 48.1516 63.2427C47.7815 64.3094 46.3096 64.3094 45.9394 63.2427C45.7061 62.5707 44.9579 62.2531 44.3294 62.5597C44.28 62.5839 44.2313 62.5876 44.1819 62.6045V70.6451L47.0455 67.7105L49.9092 70.6451V62.6037C49.8598 62.5876 49.8111 62.5832 49.7617 62.5597Z" fill="#D75A4A"/>
</g>
<defs>
<linearGradient id="paint0_linear" x1="26.3896" y1="2.29114" x2="52.4044" y2="76.8037" gradientUnits="userSpaceOnUse">
<stop stop-color="#F2F2F2"/>
<stop offset="1" stop-color="#C9C9C9"/>
</linearGradient>
<clipPath id="clip0">
<rect width="78.5455" height="90.2295" fill="white" transform="translate(0 0.102051)"/>
</clipPath>
</defs>
</svg>
