<svg width="84" height="93" viewBox="0 0 84 91" fill="none" xmlns="http://www.w3.org/2000/svg">
<path d="M41 82.1978C63.6437 82.1978 82 63.7972 82 41.0989C82 18.4006 63.6437 0 41 0C18.3563 0 0 18.4006 0 41.0989C0 63.7972 18.3563 82.1978 41 82.1978Z" fill="url(#paint0_linear)"/>
<path fill-rule="evenodd" clip-rule="evenodd" d="M81.9544 43.0511L59.089 18.1333L23.4226 26.6666L26.0843 29.8666V40.5333V44.2666L23.4226 54.4L46.8453 81.6L47.66 81.6583C66.5122 78.5712 81.0427 62.5957 81.9544 43.0511Z" fill="black" fill-opacity="0.2"/>
<path d="M25.7117 25.3867H56.7468V48.8534H25.7117V25.3867Z" fill="#EDEFF2"/>
<path d="M40.9365 51.7866H42.1077V59.4133H40.9365V51.7866Z" fill="#69C4FB"/>
<path fill-rule="evenodd" clip-rule="evenodd" d="M19.8561 61.76C20.6209 61.76 21.2717 61.2702 21.5128 60.5867H60.9458C61.1869 61.2702 61.8377 61.76 62.6025 61.76C63.5727 61.76 64.3592 60.972 64.3592 60C64.3592 59.028 63.5727 58.24 62.6025 58.24C61.8377 58.24 61.1869 58.7297 60.9458 59.4133H21.5128C21.2717 58.7297 20.6209 58.24 19.8561 58.24C18.8859 58.24 18.0994 59.028 18.0994 60C18.0994 60.972 18.8859 61.76 19.8561 61.76Z" fill="#69C4FB"/>
<path d="M44.4499 60C44.4499 61.62 43.1391 62.9333 41.5221 62.9333C39.9051 62.9333 38.5942 61.62 38.5942 60C38.5942 58.3799 39.9051 57.0667 41.5221 57.0667C43.1391 57.0667 44.4499 58.3799 44.4499 60Z" fill="#4C495E"/>
<path d="M43.2788 60C43.2788 60.972 42.4923 61.76 41.5221 61.76C40.5519 61.76 39.7654 60.972 39.7654 60C39.7654 59.028 40.5519 58.24 41.5221 58.24C42.4923 58.24 43.2788 59.028 43.2788 60Z" fill="white"/>
<path d="M22.7839 45.92C22.7839 44.3 24.0948 42.9867 25.7118 42.9867H57.3325C58.9495 42.9867 60.2603 44.3 60.2603 45.92V51.7867C60.2603 53.4067 58.9495 54.72 57.3325 54.72H25.7118C24.0948 54.72 22.7839 53.4067 22.7839 51.7867V45.92Z" fill="#4E4C63"/>
<path d="M28.6399 48.8534C28.6399 49.5014 28.1155 50.0267 27.4687 50.0267C26.8219 50.0267 26.2976 49.5014 26.2976 48.8534C26.2976 48.2054 26.8219 47.6801 27.4687 47.6801C28.1155 47.6801 28.6399 48.2054 28.6399 48.8534Z" fill="#F9D300"/>
<path fill-rule="evenodd" clip-rule="evenodd" d="M41.5223 54.7201H57.3327C58.9497 54.7201 60.2605 53.4068 60.2605 51.7868V45.9201C60.2605 44.3001 58.9497 42.9868 57.3327 42.9868H41.5223V54.7201Z" fill="#333045"/>
<path d="M22.7839 32.4266C22.7839 30.8066 24.0948 29.4933 25.7118 29.4933H57.3325C58.9495 29.4933 60.2603 30.8066 60.2603 32.4266V38.2933C60.2603 39.9133 58.9495 41.2266 57.3325 41.2266H25.7118C24.0948 41.2266 22.7839 39.9133 22.7839 38.2933V32.4266Z" fill="#4E4C63"/>
<path d="M28.6399 35.36C28.6399 36.008 28.1155 36.5333 27.4687 36.5333C26.8219 36.5333 26.2976 36.008 26.2976 35.36C26.2976 34.712 26.8219 34.1866 27.4687 34.1866C28.1155 34.1866 28.6399 34.712 28.6399 35.36Z" fill="#F9D300"/>
<path fill-rule="evenodd" clip-rule="evenodd" d="M41.5223 41.2267H57.3327C58.9497 41.2267 60.2605 39.9134 60.2605 38.2934V32.4267C60.2605 30.8066 58.9497 29.4934 57.3327 29.4934H41.5223V41.2267Z" fill="#333045"/>
<path d="M22.7839 18.9333C22.7839 17.3133 24.0948 16 25.7118 16H57.3325C58.9495 16 60.2603 17.3133 60.2603 18.9333V24.8C60.2603 26.42 58.9495 27.7333 57.3325 27.7333H25.7118C24.0948 27.7333 22.7839 26.42 22.7839 24.8V18.9333Z" fill="#4E4C63"/>
<path d="M28.6399 21.8667C28.6399 22.5147 28.1155 23.04 27.4687 23.04C26.8219 23.04 26.2976 22.5147 26.2976 21.8667C26.2976 21.2187 26.8219 20.6934 27.4687 20.6934C28.1155 20.6934 28.6399 21.2187 28.6399 21.8667Z" fill="#F9D300"/>
<path fill-rule="evenodd" clip-rule="evenodd" d="M41.5223 27.7333H57.3327C58.9497 27.7333 60.2605 26.42 60.2605 24.7999V18.9333C60.2605 17.3132 58.9497 15.9999 57.3327 15.9999H41.5223V27.7333Z" fill="#333045"/>
<defs>
<linearGradient id="paint0_linear" x1="41" y1="0" x2="41" y2="82.1978" gradientUnits="userSpaceOnUse">
<stop stop-color="#F2F2F2"/>
<stop offset="1" stop-color="#C9C9C9"/>
</linearGradient>
</defs>
</svg>
