<svg width="80" height="91" viewBox="0 0 80 91" fill="none" xmlns="http://www.w3.org/2000/svg">
<g clip-path="url(#clip0)">
<path d="M76.8356 43.0169C78.9369 21.7873 63.4831 2.8687 42.3185 0.76094C21.154 -1.34682 2.29328 14.1544 0.191968 35.384C-1.90934 56.6135 13.5445 75.5322 34.709 77.6399C55.8736 79.7477 74.7343 64.2464 76.8356 43.0169Z" fill="url(#paint0_linear)"/>
<g style="mix-blend-mode:multiply">
<g style="mix-blend-mode:multiply">
<path d="M53.4607 17.4998C53.3166 17.3456 53.1821 17.1818 53.0283 17.0276C49.1452 13.1424 43.9571 10.8498 38.4783 10.5978C32.9995 10.3458 27.624 12.1527 23.4028 15.6651C19.1815 19.1775 16.4181 24.143 15.6529 29.5905C14.8876 35.0381 16.1754 40.5762 19.2646 45.1219V62.47L34.3689 77.6014C35.7445 77.7484 37.1268 77.8224 38.5101 77.8231C48.4044 77.8245 57.9193 74.0049 65.0808 67.157C72.2424 60.309 76.5007 50.9584 76.9723 41.0451L53.4607 17.4998Z" fill="#B3B3B3"/>
</g>
</g>
<path d="M24.5396 42.1245H19.2646V62.4507H24.5396V42.1245Z" fill="#F6B900"/>
<path d="M34.6668 35.2721H29.3918V62.4508H34.6668V35.2721Z" fill="#F3701E"/>
<path d="M44.8035 47.9362H39.5286V62.4507H44.8035V47.9362Z" fill="#E73127"/>
<path d="M54.9403 26.8004H49.6558V62.4508H54.9403V26.8004Z" fill="#64B66E"/>
<path d="M78.7017 69.5153C79.4175 70.2376 79.8193 71.2147 79.8193 72.2331C79.8193 73.2516 79.4175 74.2287 78.7017 74.951C77.9816 75.669 77.0075 76.0721 75.9922 76.0721C74.9768 76.0721 74.0027 75.669 73.2826 74.951L57.7844 59.4052C57.0685 58.6829 56.6667 57.7058 56.6667 56.6873C56.6667 55.6688 57.0685 54.6917 57.7844 53.9694C58.5045 53.2514 59.4786 52.8484 60.4939 52.8484C61.5093 52.8484 62.4834 53.2514 63.2035 53.9694L78.7017 69.5153Z" fill="#0F303F"/>
<path d="M59.2643 46.3941C59.8235 46.9536 60.2672 47.6183 60.57 48.3502C60.8727 49.082 61.0285 49.8665 61.0285 50.6588C61.0285 51.4511 60.8727 52.2357 60.57 52.9675C60.2672 53.6993 59.8235 54.364 59.2643 54.9236C58.7066 55.4831 58.0445 55.9269 57.3158 56.2297C56.5872 56.5326 55.8061 56.6884 55.0174 56.6884C54.2286 56.6884 53.4476 56.5326 52.7189 56.2297C51.9902 55.9269 51.3282 55.4831 50.7705 54.9236L49.089 53.237C48.5312 52.6776 48.0887 52.0135 47.7869 51.2825C47.485 50.5516 47.3296 49.7682 47.3296 48.977C47.3296 48.1858 47.485 47.4024 47.7869 46.6715C48.0887 45.9406 48.5312 45.2765 49.089 44.7171C50.2169 43.5865 51.7462 42.9514 53.3407 42.9514C54.9353 42.9514 56.4645 43.5865 57.5924 44.7171L59.2643 46.3941Z" fill="#E73127"/>
<path d="M49.8287 45.4592C49.5622 45.7367 49.324 46.0402 49.1177 46.3652C50.1016 45.7434 51.2668 45.4754 52.4225 45.605C53.5781 45.7346 54.6556 46.2541 55.4784 47.0784L56.91 48.5144C57.7363 49.3362 58.2596 50.4152 58.3941 51.5746C58.5285 52.7339 58.2661 53.9046 57.6499 54.8947C57.9756 54.6901 58.2784 54.451 58.5531 54.1815C59.0307 53.7034 59.4096 53.1356 59.6681 52.5104C59.9267 51.8853 60.0598 51.2151 60.0598 50.5384C60.0598 49.8616 59.9267 49.1914 59.6681 48.5663C59.4096 47.9411 59.0307 47.3733 58.5531 46.8952L57.1214 45.4592C56.6443 44.9758 56.0764 44.592 55.4505 44.3301C54.8247 44.0682 54.1532 43.9333 53.4751 43.9333C52.7969 43.9333 52.1255 44.0682 51.4996 44.3301C50.8737 44.592 50.3058 44.9758 49.8287 45.4592Z" fill="#BF352E"/>
<path d="M26.9608 43.1173C26.6854 42.8796 26.4164 42.629 26.1537 42.3656C23.5891 39.7888 22.1487 36.2965 22.1487 32.6554C22.1487 29.0143 23.5891 25.5221 26.1537 22.9453C26.6839 22.4089 27.2558 21.9158 27.864 21.4707C25.229 24.4087 23.6926 28.1733 23.5173 32.1213C23.3421 36.0694 24.5389 39.956 26.9032 43.1173H26.9608Z" fill="white"/>
<path d="M21.8685 17.0276C18.7876 20.1184 16.6895 24.0562 15.8396 28.343C14.9898 32.6298 15.4262 37.0732 17.0939 41.1112C18.7615 45.1492 21.5854 48.6005 25.2085 51.0287C28.8315 53.4569 33.0911 54.753 37.4484 54.753C41.8058 54.753 46.0654 53.4569 49.6884 51.0287C53.3115 48.6005 56.1354 45.1492 57.803 41.1112C59.4706 37.0732 59.9071 32.6298 59.0572 28.343C58.2074 24.0562 56.1093 20.1184 53.0284 17.0276C50.9831 14.974 48.5544 13.3449 45.8811 12.2334C43.2078 11.1219 40.3423 10.5498 37.4484 10.5498C34.5546 10.5498 31.6891 11.1219 29.0158 12.2334C26.3425 13.3449 23.9138 14.974 21.8685 17.0276ZM49.0025 44.216C46.7203 46.513 43.81 48.0791 40.6399 48.7159C37.4699 49.3527 34.1827 49.0316 31.1947 47.7931C28.2068 46.5547 25.6524 44.4547 23.855 41.7591C22.0577 39.0635 21.0983 35.8935 21.0983 32.6506C21.0983 29.4076 22.0577 26.2376 23.855 23.542C25.6524 20.8464 28.2068 18.7464 31.1947 17.508C34.1827 16.2696 37.4699 15.9484 40.6399 16.5852C43.81 17.222 46.7203 18.7881 49.0025 21.0852C52.0535 24.1562 53.7667 28.315 53.7667 32.6506C53.7667 36.9861 52.0535 41.145 49.0025 44.216Z" fill="white"/>
<path d="M23.4252 18.5889C20.6518 21.3709 18.7631 24.9155 17.9979 28.7742C17.2328 32.6329 17.6256 36.6326 19.1266 40.2675C20.6277 43.9023 23.1695 47.009 26.4308 49.1948C29.6921 51.3806 33.5263 52.5472 37.4486 52.5472C41.3708 52.5472 45.2051 51.3806 48.4663 49.1948C51.7276 47.009 54.2695 43.9023 55.7705 40.2675C57.2715 36.6326 57.6643 32.6329 56.8992 28.7742C56.134 24.9155 54.2454 21.3709 51.4719 18.5889C49.6304 16.7416 47.4441 15.2763 45.038 14.2765C42.6319 13.2768 40.053 12.7622 37.4486 12.7622C34.8442 12.7622 32.2653 13.2768 29.8591 14.2765C27.453 15.2763 25.2667 16.7416 23.4252 18.5889ZM49.0026 44.2159C46.7205 46.513 43.8101 48.0791 40.64 48.7159C37.47 49.3526 34.1828 49.0315 31.1949 47.7931C28.2069 46.5547 25.6525 44.4547 23.8552 41.759C22.0579 39.0634 21.0984 35.8934 21.0984 32.6505C21.0984 29.4076 22.0579 26.2376 23.8552 23.542C25.6525 20.8463 28.2069 18.7464 31.1949 17.5079C34.1828 16.2695 37.47 15.9484 40.64 16.5852C43.8101 17.2219 46.7205 18.788 49.0026 21.0851C52.0536 24.1561 53.7668 28.3149 53.7668 32.6505C53.7668 36.9861 52.0536 41.1449 49.0026 44.2159Z" fill="#D9D9D9"/>
<path d="M75.2236 72.5416C75.4178 72.7414 75.5266 73.0094 75.5266 73.2885C75.5266 73.5676 75.4178 73.8356 75.2236 74.0354C75.1262 74.1342 75.0102 74.2126 74.8824 74.2662C74.7546 74.3197 74.6174 74.3472 74.4789 74.3472C74.3404 74.3472 74.2033 74.3197 74.0755 74.2662C73.9477 74.2126 73.8317 74.1342 73.7343 74.0354L58.4666 58.7209C58.3681 58.6232 58.29 58.5069 58.2366 58.3787C58.1832 58.2505 58.1558 58.1129 58.1558 57.974C58.1558 57.835 58.1832 57.6975 58.2366 57.5693C58.29 57.4411 58.3681 57.3247 58.4666 57.227C58.5632 57.1285 58.6783 57.0503 58.8054 56.9969C58.9324 56.9435 59.0687 56.916 59.2065 56.916C59.3442 56.916 59.4805 56.9435 59.6076 56.9969C59.7346 57.0503 59.8497 57.1285 59.9463 57.227L75.2236 72.5416Z" fill="#4B4B55"/>
<path d="M24.578 47.2519C21.8345 44.5079 19.9103 41.0494 19.0225 37.2666C18.1347 33.4839 18.3187 29.5275 19.5537 25.8441C20.7888 22.1607 23.0257 18.8969 26.0119 16.4211C28.9982 13.9453 32.6149 12.356 36.4539 11.8328C33.6197 11.9198 30.8332 12.5876 28.2659 13.7952C25.6986 15.0028 23.4048 16.7246 21.5257 18.8547C19.6466 20.9847 18.2219 23.4779 17.3393 26.1809C16.4567 28.8839 16.1349 31.7394 16.3936 34.5718C16.6523 37.4042 17.4861 40.1536 18.8438 42.6507C20.2014 45.1477 22.054 47.3397 24.2878 49.0918C26.5215 50.8438 29.089 52.1188 31.8324 52.8383C34.5757 53.5578 37.4368 53.7066 40.2396 53.2755C37.3547 53.4223 34.471 52.9622 31.7738 51.9248C29.0767 50.8874 26.6256 49.2957 24.578 47.2519Z" fill="#D1D1D1"/>
</g>
<defs>
<linearGradient id="paint0_linear" x1="0.191968" y1="35.384" x2="76.8402" y2="42.9707" gradientUnits="userSpaceOnUse">
<stop stop-color="#F2F2F2"/>
<stop offset="1" stop-color="#C9C9C9"/>
</linearGradient>
<clipPath id="clip0">
<rect width="79.8261" height="90.2295" fill="white" transform="translate(0 0.566162)"/>
</clipPath>
</defs>
</svg>
