<svg width="64" height="64" viewBox="0 0 64 64" fill="none" xmlns="http://www.w3.org/2000/svg">
<g clip-path="url(#clip0)">
<path d="M48.4579 58.0021C48.1116 57.4054 47.347 57.2021 46.7495 57.5484L46.7014 57.5761C46.1044 57.9225 45.9013 58.6874 46.2475 59.2845C46.4794 59.6841 46.8988 59.9074 47.3298 59.9074C47.5425 59.9074 47.7585 59.8528 47.9559 59.7383L48.004 59.7105C48.601 59.3641 48.8041 58.5993 48.4579 58.0021Z" fill="white" fill-opacity="0.45"/>
<path d="M59.712 16.0109C55.4393 8.61023 48.5404 3.31661 40.2861 1.10486C32.0321 -1.10689 23.4106 0.0282345 16.01 4.30086C8.60951 8.57348 3.31576 15.4725 1.10413 23.7266C-1.10749 31.9807 0.0275073 40.6024 4.30013 48.0029C8.13276 54.6412 14.2243 59.6864 21.4525 62.2086C24.8789 63.4041 28.4558 64.0007 32.0271 64.0007C35.9103 64.0007 39.7864 63.295 43.4503 61.8869C44.0946 61.6392 44.4161 60.9161 44.1684 60.2717C43.9206 59.6274 43.1974 59.3055 42.5533 59.5536C32.8008 63.302 22.243 61.5989 14.3551 55.6781L15.475 49.8325L16.0146 49.6572C18.0538 48.9947 19.1738 46.7967 18.5115 44.7575L18.1155 43.5389C18.0239 43.2569 18.0244 42.9587 18.1168 42.677C18.4641 41.618 18.34 40.4594 17.7761 39.4979C17.2123 38.5365 16.2616 37.8624 15.1678 37.6485L12.3465 37.0972L6.90301 32.9585C6.57688 32.7105 6.15001 32.6381 5.76026 32.7646L2.57326 33.7999C2.50563 32.66 2.50463 31.5205 2.56888 30.387C2.69463 30.5041 2.77651 30.5837 2.82688 30.636C2.88926 30.7399 2.96651 30.8351 3.05701 30.9176C3.31726 31.1546 3.55301 31.2621 4.04801 31.2621C4.50288 31.262 5.17626 31.1714 6.28813 31.0071C7.34263 30.8512 8.39163 30.6756 8.40201 30.6739C8.82238 30.6035 9.17776 30.3235 9.34501 29.9316C9.51226 29.5396 9.46813 29.0895 9.22801 28.7372L7.69538 26.4892L9.89063 24.9195C10.0369 24.8149 10.1589 24.68 10.2483 24.524L13.6511 18.5834L15.0228 17.1136C16.4244 15.6114 16.8244 13.4135 16.0416 11.514C15.5799 10.3936 14.7734 9.46086 13.7646 8.83223C14.8571 7.97336 16.022 7.18036 17.26 6.46573C21.8023 3.84323 26.7593 2.57236 31.6641 2.52373L29.4321 5.32361L21.1553 8.22523C20.8191 8.34298 20.5491 8.59873 20.4134 8.92798L18.1019 14.5315C17.9378 14.9296 17.9899 15.3839 18.24 15.7344L21.616 20.4634C21.1325 20.9045 20.6619 21.547 20.0998 22.3447C19.8533 22.6946 19.6205 23.025 19.4596 23.2102C19.3198 23.3715 19.1798 23.529 19.041 23.685C18.3149 24.5019 17.5641 25.3467 17.0308 26.4752C15.858 28.9576 16.0949 31.8429 17.6489 34.0051C19.1515 36.0957 21.6288 37.1585 24.2728 36.8475C24.7035 36.797 25.1051 36.6976 25.4938 36.6014C26.5654 36.3362 26.9049 36.3097 27.2486 36.6315C27.4159 36.7881 27.4313 36.8177 27.4279 37.3489C27.4255 37.6869 27.4229 38.1074 27.5394 38.5875C27.726 39.3556 28.2084 39.8865 28.5959 40.313C28.7885 40.5249 28.9878 40.7441 29.0491 40.8912C29.439 41.8255 29.2693 42.3429 28.8973 43.4766C28.8654 43.5736 28.8329 43.6726 28.8003 43.7741C28.2351 45.5235 29.0229 47.2587 29.7179 48.7895C29.9436 49.2866 30.1568 49.7559 30.2964 50.1706C31.4203 53.5055 32.2628 54.2692 32.9389 54.5767C33.293 54.7377 33.6595 54.8084 34.0298 54.8082C35.8316 54.8081 37.7119 53.1351 38.5756 52.0745C39.1181 51.4085 39.2518 50.7416 39.3493 50.2545C39.3979 50.0122 39.4361 49.821 39.5091 49.696C39.6209 49.5047 39.7525 49.3565 39.9191 49.1687C40.2543 48.7914 40.6714 48.3219 40.9415 47.4707C41.1468 46.8242 41.2959 46.6657 41.7898 46.1397C41.8758 46.0484 41.9674 45.9506 42.0658 45.8436C43.7306 44.032 43.3019 42.6481 42.8478 41.1829C42.4656 39.95 43.134 39.1615 44.75 37.6566C45.4505 37.0042 46.1748 36.3297 46.7346 35.5192C46.9796 35.1645 47.725 34.0854 47.2638 33.0157C46.8116 31.967 45.6625 31.7907 44.7393 31.6492C44.3746 31.5932 43.8236 31.5087 43.6483 31.3941C42.8749 30.8885 42.4018 29.8332 41.9441 28.8126C41.853 28.6095 41.7631 28.409 41.672 28.2144C41.5095 27.8671 41.3471 27.447 41.1753 27.0022C40.7205 25.8252 40.2051 24.4911 39.3278 23.5611C38.5391 22.7255 37.0525 22.323 35.7409 21.9677C35.2998 21.8484 34.8834 21.7356 34.6088 21.6342C34.3786 21.5492 34.1289 21.5339 33.8906 21.5899C33.2523 21.7395 32.854 21.9044 32.5583 22.1414C32.4801 22.204 32.2488 22.4096 32.1133 22.7401C31.6556 22.5205 31.0264 22.1011 30.6391 21.843C30.6311 21.8376 30.623 21.8322 30.615 21.8269C30.7455 21.3046 30.6274 20.8855 30.5036 20.6237C29.8054 19.1467 27.4875 19.2624 27.0303 19.3012C26.7705 19.323 26.4419 19.3346 26.0943 19.3469C25.5483 19.3662 24.9448 19.388 24.3476 19.455L24.3784 19.3692C24.8316 18.1064 26.0376 17.2579 27.3794 17.2579H28.09C28.7801 17.2579 29.3399 16.6981 29.3399 16.008C29.3399 15.3179 28.7801 14.7581 28.09 14.7581H27.3794C25.3874 14.7581 23.5633 15.8065 22.5409 17.4566L20.6765 14.845L22.5108 10.3989L30.5986 7.56336C30.8204 7.48561 31.0159 7.34686 31.1625 7.16298L34.7579 2.65311C43.9446 3.52698 52.5921 8.67773 57.5474 17.2605C58.8673 19.5466 59.8436 21.9534 60.4928 24.415L59.9629 24.8875C59.2713 25.5046 58.866 26.3897 58.8505 27.3161C58.8504 27.3262 58.8501 27.3362 58.8498 27.3462L57.9865 24.9722C57.8579 24.618 57.6684 24.2931 57.4236 24.0067L55.8838 22.2039C55.2868 21.505 54.4175 21.1044 53.4986 21.1044H51.6138C50.9446 21.1044 50.3331 21.4709 50.0175 22.0605C49.7019 22.6502 49.7364 23.3625 50.1075 23.919L50.2983 24.2054C49.0803 25.2527 47.6715 26.0909 46.1715 26.6561L43.5878 21.707V20.6029C43.5878 20.2614 43.448 19.9345 43.2009 19.6989L40.8743 17.4777C40.7459 17.3552 40.5929 17.2615 40.4255 17.2026L38.3311 16.4666C37.6795 16.2374 36.9663 16.5802 36.7375 17.2314C36.5086 17.8827 36.851 18.5961 37.5023 18.825L39.3428 19.4719L41.088 21.1377V22.0137C41.088 22.2151 41.1368 22.4136 41.23 22.5922L44.4646 28.7881C44.7555 29.3456 45.4158 29.6004 46.005 29.3824L46.9469 29.0351C49.135 28.2281 51.1631 26.93 52.8121 25.2812C53.2334 24.8599 53.2989 24.2 52.9683 23.7041L52.9018 23.6042H53.4986C53.6853 23.6042 53.8619 23.6856 53.9831 23.8276L55.523 25.6305C55.5726 25.6886 55.611 25.7544 55.6373 25.8265L57.3366 30.4994C57.4826 30.9009 57.8236 31.1999 58.2404 31.2924C58.3304 31.3122 58.421 31.322 58.5111 31.322C58.839 31.322 59.1581 31.1929 59.3949 30.9559L60.2038 30.147C60.716 29.6346 61.0686 28.9864 61.2371 28.2677C62.4881 38.2934 58.557 48.6644 50.2478 55.1861C49.7046 55.6122 49.6099 56.3979 50.0363 56.941C50.4624 57.4841 51.2479 57.5789 51.7911 57.1525C57.7901 52.4441 61.9114 45.7097 63.3958 38.1899C64.894 30.5975 63.5859 22.7206 59.712 16.0109ZM5.91051 35.3442L11.0646 39.2631C11.217 39.379 11.3938 39.4582 11.5815 39.4949L14.688 40.1019C15.0845 40.1794 15.4153 40.4139 15.6196 40.7624C15.824 41.1107 15.867 41.5139 15.7413 41.8977C15.4825 42.6869 15.4813 43.5215 15.7379 44.3111L16.1339 45.5296C16.3705 46.2579 15.9703 47.043 15.2421 47.2796L14 47.6832C13.5666 47.824 13.2444 48.1895 13.1588 48.6367L12.159 53.8554C9.96113 51.8437 8.03138 49.4662 6.46501 46.7531C4.55401 43.4435 3.36001 39.9134 2.83376 36.3439L5.91051 35.3442ZM13.1951 15.4081L11.7248 16.9835C11.6591 17.0539 11.6018 17.1316 11.5539 17.2151L8.21488 23.0446L5.24726 25.1666C4.69451 25.5619 4.55876 26.326 4.94151 26.8875L6.05138 28.5155C5.41163 28.6107 4.83751 28.6892 4.45576 28.7309C4.38238 28.6605 4.30563 28.5891 4.22626 28.5154C3.92913 28.2394 3.51626 27.8707 2.90076 27.3321C3.91588 21.0492 6.94338 15.1302 11.7049 10.6121C12.6166 10.8992 13.3649 11.5794 13.7304 12.4665C14.1416 13.4642 13.9314 14.619 13.1951 15.4081ZM23.3864 22.2385C23.9439 21.9247 25.2379 21.8789 26.1826 21.8454C26.5613 21.832 26.919 21.8192 27.2385 21.7925C27.4071 21.7784 27.5944 21.781 27.771 21.7947C27.6921 21.9972 27.6665 22.2195 27.7008 22.44C27.7609 22.8279 28 23.1647 28.346 23.3499C28.5805 23.4754 28.9069 23.693 29.2524 23.9234C30.2293 24.5746 31.3366 25.3127 32.3769 25.379C33.3229 25.4404 33.8493 24.9012 34.0748 24.6716C34.0928 24.6534 34.1098 24.6351 34.1278 24.6185C34.2548 24.515 34.3738 24.3762 34.4623 24.2089C34.6621 24.266 34.8721 24.3229 35.0874 24.3812C35.8275 24.5816 37.2051 24.9546 37.5095 25.2771C38.0501 25.8502 38.4715 26.9411 38.8434 27.9035C39.0313 28.3899 39.2088 28.8489 39.4079 29.2745C39.4934 29.4571 39.5775 29.6452 39.663 29.8357C40.2398 31.1222 40.8935 32.5805 42.2804 33.487C42.9093 33.8981 43.6801 34.0162 44.3604 34.1206C44.4426 34.1332 44.5369 34.1477 44.6326 34.1635C44.2289 34.7267 43.654 35.262 43.0466 35.8276C41.4993 37.2686 39.5735 39.0621 40.4604 41.9232C40.879 43.2742 40.8985 43.4202 40.2254 44.1525C40.1336 44.2524 40.0481 44.3434 39.968 44.4286C39.3915 45.0424 38.9361 45.5271 38.5591 46.7146C38.4496 47.0595 38.3078 47.2192 38.0501 47.5092C37.8441 47.7412 37.5875 48.0302 37.3509 48.4352C37.0674 48.9205 36.9736 49.3877 36.8985 49.7631C36.8244 50.1325 36.7824 50.3179 36.6374 50.4959C36.3073 50.9011 35.6915 51.4896 35.0594 51.8912C34.4719 52.2642 34.1289 52.3152 34.012 52.3082C33.8786 52.1652 33.3955 51.5391 32.6655 49.3725C32.4855 48.838 32.2358 48.288 31.9943 47.7561C31.4619 46.5836 30.9115 45.3711 31.1793 44.5425C31.2109 44.4447 31.2421 44.3492 31.2729 44.2559C31.7006 42.9521 32.1044 41.721 31.3564 39.9285C31.1286 39.3826 30.766 38.9837 30.4464 38.6317C30.2395 38.4041 30.0051 38.1461 29.969 37.9976C29.925 37.8165 29.9264 37.6074 29.928 37.3652C29.9323 36.7121 29.9388 35.7252 28.9576 34.8065C27.5744 33.5117 25.9614 33.9106 24.8939 34.1746C24.566 34.2556 24.2563 34.3324 23.9818 34.3646C22.2258 34.5704 20.658 33.9079 19.6793 32.5459C18.6554 31.1212 18.5068 29.2041 19.2915 27.5429C19.6714 26.739 20.2453 26.0931 20.9098 25.3456C21.0549 25.1822 21.2014 25.0175 21.3479 24.8487C21.5916 24.5677 21.8599 24.1872 22.1435 23.7844C22.4821 23.3037 23.1126 22.4087 23.3864 22.2385Z" fill="white" fill-opacity="0.65"/>
<path d="M51.2527 43.0348L50.6513 40.7681C50.5199 40.2731 50.0999 39.9083 49.5916 39.8475C49.0826 39.788 48.5889 40.0426 48.3446 40.4927C48.2076 40.7452 48.0842 41.0127 47.9649 41.2713C47.7643 41.7064 47.5568 42.1564 47.3409 42.4048C47.2197 42.5443 46.9082 42.6947 46.6072 42.8399C45.8876 43.1872 44.9019 43.6628 44.5254 44.863C44.2917 45.6075 44.3789 46.1965 44.4427 46.6265C44.4978 46.9994 44.5106 47.1287 44.4107 47.3632L44.3982 47.3923C44.0003 48.3259 43.2601 50.064 44.2981 51.5417C45.0387 52.5962 45.8174 52.8673 46.4226 52.8673C46.5407 52.8677 46.6524 52.8573 46.7558 52.8404C48.0308 52.632 48.9893 51.3058 49.7726 48.6663L51.2428 43.7112C51.3082 43.4908 51.3117 43.2568 51.2527 43.0348ZM47.3762 47.9552C46.9769 49.3009 46.6237 49.9292 46.4198 50.2077C46.3963 50.1777 46.3708 50.1437 46.3436 50.1048C46.1047 49.7645 46.4617 48.9265 46.6979 48.3719L46.7106 48.3427C47.0916 47.4484 46.9897 46.7617 46.9156 46.2602C46.8679 45.939 46.8509 45.801 46.9106 45.6114C46.9596 45.4555 47.2524 45.3043 47.6937 45.0913C47.8893 44.9968 48.1047 44.8929 48.3221 44.7672L47.3762 47.9552Z" fill="white" fill-opacity="0.45"/>
<path d="M33.7537 14.8575L33.6693 14.828C33.0185 14.6 32.3047 14.9424 32.0762 15.5938C31.8477 16.2453 32.1906 16.9584 32.8419 17.1869L32.9262 17.2164C33.0631 17.2644 33.2026 17.2872 33.3399 17.2872C33.8559 17.2872 34.3389 16.965 34.5194 16.4507C34.7479 15.7992 34.4051 15.0859 33.7537 14.8575Z" fill="white" fill-opacity="0.45"/>
</g>
<defs>
<clipPath id="clip0">
<rect width="64" height="64" fill="white"/>
</clipPath>
</defs>
</svg>
