<svg width="67" height="67" viewBox="0 0 67 67" fill="none" xmlns="http://www.w3.org/2000/svg">
<path d="M55.8333 0H15.6333C12.9019 0 10.6317 1.97427 10.1527 4.5694C7.55756 5.04845 5.5833 7.31863 5.5833 10.05V61.4167C5.5833 64.4953 8.08798 67 11.1666 67H51.3666C54.098 67 56.3682 65.0257 56.8472 62.4306C59.4424 61.9516 61.4166 59.6814 61.4166 56.95V5.58333C61.4166 2.50468 58.9119 0 55.8333 0ZM54.7166 61.4167C54.7166 63.2636 53.2136 64.7667 51.3666 64.7667H11.1666C9.31966 64.7667 7.81663 63.2636 7.81663 61.4167V10.05C7.81663 8.20303 9.31966 6.7 11.1666 6.7H44.6666V15.6333C44.6666 16.2509 45.1658 16.75 45.7833 16.75H54.7166V61.4167ZM46.9 14.5167V8.27897L53.1377 14.5167H46.9ZM59.1833 56.95C59.1833 58.4039 58.2464 59.6322 56.95 60.0945V15.6333C56.95 15.324 56.8238 15.0449 56.6217 14.8427L46.575 4.79608C46.3718 4.59285 46.0926 4.46667 45.7833 4.46667H12.4888C12.9511 3.17022 14.1794 2.23333 15.6333 2.23333H55.8333C57.6803 2.23333 59.1833 3.73637 59.1833 5.58333V56.95Z" fill="black" fill-opacity="0.65"/>
<path d="M31.2666 10.05C28.188 10.05 25.6833 12.5547 25.6833 15.6334C25.6833 18.712 28.188 21.2167 31.2666 21.2167C34.3453 21.2167 36.85 18.712 36.85 15.6334C36.85 12.5547 34.3453 10.05 31.2666 10.05ZM31.2666 18.9834C29.4197 18.9834 27.9166 17.4803 27.9166 15.6334C27.9166 13.7864 29.4197 12.2834 31.2666 12.2834C33.1136 12.2834 34.6166 13.7864 34.6166 15.6334C34.6166 17.4803 33.1136 18.9834 31.2666 18.9834Z" fill="black" fill-opacity="0.65"/>
<path d="M22.3334 24.5667H11.1667V26.8H22.3334V24.5667Z" fill="black" fill-opacity="0.65"/>
<path d="M29.0333 24.5667H25.6833V26.8H29.0333V24.5667Z" fill="black" fill-opacity="0.65"/>
<path d="M44.6667 24.5667H33.5V26.8H44.6667V24.5667Z" fill="black" fill-opacity="0.65"/>
<path d="M51.3667 24.5667H48.0167V26.8H51.3667V24.5667Z" fill="black" fill-opacity="0.65"/>
<path d="M22.3334 29.0333H11.1667V31.2667H22.3334V29.0333Z" fill="black" fill-opacity="0.65"/>
<path d="M29.0333 29.0333H25.6833V31.2667H29.0333V29.0333Z" fill="black" fill-opacity="0.65"/>
<path d="M44.6667 29.0333H33.5V31.2667H44.6667V29.0333Z" fill="black" fill-opacity="0.65"/>
<path d="M51.3667 29.0333H48.0167V31.2667H51.3667V29.0333Z" fill="black" fill-opacity="0.65"/>
<path d="M22.3334 33.5H11.1667V35.7333H22.3334V33.5Z" fill="black" fill-opacity="0.65"/>
<path d="M29.0333 33.5H25.6833V35.7333H29.0333V33.5Z" fill="black" fill-opacity="0.65"/>
<path d="M44.6667 33.5H33.5V35.7333H44.6667V33.5Z" fill="black" fill-opacity="0.65"/>
<path d="M51.3667 33.5H48.0167V35.7333H51.3667V33.5Z" fill="black" fill-opacity="0.65"/>
<path d="M22.3334 37.9667H11.1667V40.2H22.3334V37.9667Z" fill="black" fill-opacity="0.65"/>
<path d="M29.0333 37.9667H25.6833V40.2H29.0333V37.9667Z" fill="black" fill-opacity="0.65"/>
<path d="M44.6667 37.9667H33.5V40.2H44.6667V37.9667Z" fill="black" fill-opacity="0.65"/>
<path d="M51.3667 37.9667H48.0167V40.2H51.3667V37.9667Z" fill="black" fill-opacity="0.65"/>
<path d="M22.3334 44.6666H11.1667V46.9H22.3334V44.6666Z" fill="black" fill-opacity="0.65"/>
<path d="M29.0333 44.6666H25.6833V46.9H29.0333V44.6666Z" fill="black" fill-opacity="0.65"/>
<path d="M44.6667 44.6666H33.5V46.9H44.6667V44.6666Z" fill="black" fill-opacity="0.65"/>
<path d="M51.3667 44.6666H48.0167V46.9H51.3667V44.6666Z" fill="black" fill-opacity="0.65"/>
<path d="M22.3334 49.1333H11.1667V51.3666H22.3334V49.1333Z" fill="black" fill-opacity="0.65"/>
<path d="M29.0333 49.1333H25.6833V51.3666H29.0333V49.1333Z" fill="black" fill-opacity="0.65"/>
<path d="M44.6667 49.1333H33.5V51.3666H44.6667V49.1333Z" fill="black" fill-opacity="0.65"/>
<path d="M51.3667 49.1333H48.0167V51.3666H51.3667V49.1333Z" fill="black" fill-opacity="0.65"/>
<path d="M22.3334 53.6H11.1667V55.8333H22.3334V53.6Z" fill="black" fill-opacity="0.65"/>
<path d="M29.0333 53.6H25.6833V55.8333H29.0333V53.6Z" fill="black" fill-opacity="0.65"/>
<path d="M44.6667 53.6H33.5V55.8333H44.6667V53.6Z" fill="black" fill-opacity="0.65"/>
<path d="M51.3667 53.6H48.0167V55.8333H51.3667V53.6Z" fill="black" fill-opacity="0.65"/>
<path d="M22.3334 58.0667H11.1667V60.3H22.3334V58.0667Z" fill="black" fill-opacity="0.65"/>
<path d="M29.0333 58.0667H25.6833V60.3H29.0333V58.0667Z" fill="black" fill-opacity="0.65"/>
<path d="M44.6667 58.0667H33.5V60.3H44.6667V58.0667Z" fill="black" fill-opacity="0.65"/>
<path d="M51.3667 58.0667H48.0167V60.3H51.3667V58.0667Z" fill="black" fill-opacity="0.65"/>
</svg>
