<svg width="77" height="91" viewBox="0 0 77 91" fill="none" xmlns="http://www.w3.org/2000/svg">
<g clip-path="url(#clip0)">
<path d="M76.5 38.3708C76.5 45.9397 74.2567 53.3385 70.0537 59.6318C65.8508 65.9251 59.8769 70.8301 52.8877 73.7265C45.8984 76.623 38.2076 77.3809 30.7878 75.9043C23.368 74.4277 16.5525 70.7829 11.2032 65.4309C5.85382 60.0789 2.21086 53.2601 0.73498 45.8367C-0.740904 38.4133 0.0165733 30.7187 2.91162 23.726C5.80668 16.7333 10.7093 10.7565 16.9995 6.5515C23.2896 2.34648 30.6849 0.102052 38.25 0.102052C43.2734 0.100798 48.2479 1.08979 52.8891 3.01253C57.5304 4.93527 61.7475 7.75408 65.2996 11.3079C68.8517 14.8617 71.6692 19.081 73.591 23.7245C75.5127 28.3681 76.5013 33.3449 76.5 38.3708Z" fill="url(#paint0_linear)"/>
<g style="mix-blend-mode:multiply">
<g style="mix-blend-mode:multiply">
<path d="M76.5 38.3709C76.5 38.2467 76.5 38.1226 76.5 37.9985C73.1025 34.5612 66.1454 27.6102 66.0022 27.4956C65.8852 27.2908 65.7229 27.1155 65.5277 26.9831C65.3325 26.8507 65.1096 26.7647 64.8761 26.7317C64.7807 26.6458 64.6853 26.5599 64.5707 26.4739C64.418 26.2542 64.2273 26.0634 64.0077 25.9106C63.8554 25.6963 63.6683 25.5091 63.4541 25.3568C61.9177 23.1703 55.7431 23.3708 53.2332 27.4574C53.1282 27.3619 46.3237 20.5541 46.1901 20.4395L46.0279 20.2486L45.6271 19.8762C45.5778 19.8086 45.5235 19.7448 45.4648 19.6852C42.0101 16.1906 37.9351 16.8208 35.6637 17.3937C34.3731 17.7819 33.198 18.4825 32.2425 19.4335C31.287 20.3844 30.5806 21.5564 30.1858 22.8457C29.7797 24.4865 29.7601 26.1992 30.1286 27.8489C30.0549 27.7784 29.9648 27.7276 29.8664 27.7009C29.7681 27.6742 29.6646 27.6725 29.5655 27.6961C29.0883 27.8584 29.0311 28.9373 29.4319 30.1022C29.6446 30.7162 30.0288 31.2563 30.5389 31.6586C30.7045 31.8672 30.8934 32.0563 31.102 32.2219C31.2676 32.4277 31.4565 32.6135 31.665 32.7757C31.6623 32.7947 31.6623 32.814 31.665 32.833C32.1268 33.8542 32.71 34.8159 33.4019 35.6974V37.3397L33.1443 37.1869L33.0488 37.1201C32.8909 36.9047 32.701 36.7148 32.4858 36.5567C32.3278 36.3414 32.138 36.1514 31.9227 35.9934C31.77 35.8215 20.9096 24.9271 20.6997 24.803C20.5417 24.5877 20.3518 24.3977 20.1366 24.2397C19.7835 23.8065 19.3282 23.468 18.8117 23.2546C18.2953 23.0413 17.7339 22.9598 17.1781 23.0175C11.538 23.3804 8.52227 26.7031 7.36752 32.1073C7.05712 34.3708 7.57576 36.6702 8.82766 38.5809C9.24526 39.3611 9.49803 40.2189 9.57027 41.1009C9.6425 41.983 9.53266 42.8705 9.24757 43.7082L8.7704 43.9947L9.02808 44.3671C8.95173 44.5771 8.87538 44.7872 8.78949 45.0068C6.88081 46.4104 4.90532 47.327 4.44724 49.8381L4.24683 52.4734L27.3991 75.0642C33.105 76.7551 39.1266 77.0904 44.9848 76.0433C50.8429 74.9962 56.376 72.5957 61.1437 69.0327C65.9115 65.4698 69.7823 60.8427 72.4482 55.5197C75.1141 50.1967 76.5015 44.3247 76.5 38.3709Z" fill="#CCCCCC"/>
</g>
</g>
<path d="M19.7548 42.5528L11.9483 42.4287L11.0608 42.677L10.7554 42.8488L10.8317 43.078L13.2557 50.4777L13.962 52.4733H17.9797L18.3615 50.621L20.4801 43.1066L20.566 42.8011L19.7548 42.5528Z" fill="#DBD5D5"/>
<path d="M10.8318 43.0685C8.62725 45.9329 5.10573 46.353 4.44724 49.8285L4.24683 52.4638H13.962L13.2558 50.4683L10.8318 43.0685Z" fill="#0C0A0A"/>
<path d="M17.9797 52.4734H27.3705L27.1605 49.8381C26.6738 47.4797 24.0112 46.3339 20.4801 43.1067L18.3615 50.621L17.9797 52.4734Z" fill="#161313"/>
<path d="M18.2469 38.9628H13.3607C12.9815 38.9418 12.6093 39.0715 12.3252 39.3236C12.041 39.5757 11.8678 39.9299 11.8433 40.309V43.775C11.8678 44.1542 12.041 44.5083 12.3252 44.7604C12.6093 45.0125 12.9815 45.1422 13.3607 45.1213H18.2469C18.5828 45.1348 18.9133 45.0334 19.184 44.8338C19.4546 44.6342 19.6492 44.3483 19.7357 44.0232V40.309C19.7088 39.9359 19.5389 39.5876 19.2615 39.3368C18.9841 39.0859 18.6206 38.9519 18.2469 38.9628Z" fill="#D1AB86"/>
<path d="M22.9709 32.5656C22.78 32.5083 22.5605 32.642 22.3506 32.9093C22.3506 32.7757 22.3506 32.642 22.3506 32.5083C22.3506 28.1735 19.4207 24.6598 15.7942 24.6598C12.1677 24.6598 9.25701 28.1926 9.25701 32.5656V32.9666C9.0566 32.6993 8.8371 32.5656 8.64623 32.6229C8.18815 32.7661 8.04499 33.9787 8.3313 35.325C8.6176 36.6713 9.23792 37.6548 9.69601 37.5115C9.85824 37.5115 9.98231 37.2728 10.0587 36.9959C11.1752 40.2423 13.332 43.1831 15.7847 43.1831C18.2374 43.1831 20.4228 40.2423 21.5108 36.9959C21.5871 37.2728 21.7112 37.4638 21.8639 37.5115C22.3315 37.6548 22.9423 36.6713 23.2286 35.325C23.5149 33.9787 23.429 32.7279 22.9709 32.5656Z" fill="#FFE2C2"/>
<path d="M11.7766 42.7439C11.7766 42.7439 11.9102 43.9756 14.1434 44.6535C16.3765 45.3314 14.8877 46.8878 14.8877 46.8878L13.1413 47.2506L12.1106 45.255L11.6812 43.7178L11.7766 42.7439Z" fill="#FFF8F8"/>
<path d="M19.8312 42.973C19.8312 42.973 19.7071 44.1952 17.4739 44.8826C15.2408 45.5701 16.7295 47.1073 16.7295 47.1073L18.476 47.4702L19.4971 45.4651L19.9361 43.9374L19.8312 42.973Z" fill="#FFF8F8"/>
<path d="M11.185 42.5529L8.77051 43.9946L13.2559 50.4778L11.185 42.5529Z" fill="#333030"/>
<path d="M20.4707 42.5243L23.0092 44.4339L18.3616 50.6211L20.4707 42.5243Z" fill="#333030"/>
<path d="M15.489 47.7756L14.3057 52.4637H17.5981L16.243 47.7756H15.489Z" fill="#0C0A0A"/>
<path d="M14.8878 45.0162L16.8442 45.0449L17.2069 46.4866L16.806 47.9666H14.9546L14.5156 46.5821L14.8878 45.0162Z" fill="#0C0A0A"/>
<path d="M8.82766 38.5522C7.56216 36.65 7.02663 34.3543 7.3198 32.0881C7.736 29.5406 8.96462 27.196 10.8222 25.4045C11.1085 23.4949 12.2347 22.4255 14.4774 22.4732C20.1271 22.836 23.1428 26.1588 24.288 31.563C24.5901 33.8283 24.0575 36.1261 22.7897 38.0271C21.3009 40.9583 22.2075 43.1735 23.6199 46.2862C19.9839 45.1595 17.5981 43.9182 18.3234 42.381C20.3656 37.8361 22.5606 33.7113 19.6403 29.8348C18.686 29.8348 14.4296 32.8711 11.8434 30.6941C9.30483 34.5134 11.4044 38.5522 13.2844 42.887C14.0193 44.4338 11.6239 45.6751 7.98784 46.7922C9.4098 43.6986 10.3069 41.4835 8.82766 38.5522Z" fill="#6B4A3B"/>
<path d="M63.645 42.4383L55.18 42.3142L54.2161 42.5625L53.8821 42.7343L53.968 42.9635L56.5924 50.3728L57.3654 52.3684H61.7172L62.1371 50.5065L64.4276 43.0017L64.5134 42.6866L63.645 42.4383Z" fill="#DBD5D5"/>
<path d="M53.9679 42.9635C49.9215 43.7655 46.7913 45.5892 46.7913 48.5014L46.4668 52.3684H57.3654L56.5924 50.3633L53.9679 42.9635Z" fill="#161313"/>
<path d="M61.7173 52.3683H72.215L71.881 48.5013C71.881 45.6941 68.579 43.8323 64.3799 43.0016L62.0895 50.5064L61.7173 52.3683Z" fill="#0C0A0A"/>
<path d="M62.0321 39.0964H56.7164C56.3275 39.053 55.937 39.1635 55.6285 39.4044C55.3199 39.6453 55.1179 39.9974 55.0654 40.3854V43.7177C55.1268 44.0994 55.3323 44.443 55.6395 44.6776C55.9467 44.9121 56.3322 45.0197 56.7164 44.978H62.0321C62.3637 45.0027 62.6949 44.9242 62.9802 44.7533C63.2655 44.5823 63.491 44.3274 63.6259 44.0232V40.3854C63.5714 40.0092 63.377 39.6674 63.0815 39.4284C62.786 39.1894 62.4112 39.0708 62.0321 39.0964Z" fill="#D1AB86"/>
<path d="M67.1284 32.9571C66.9184 32.8998 66.6799 33.0334 66.4604 33.2912C66.4604 33.1671 66.4604 33.0334 66.4604 32.9093C66.522 31.9379 66.384 30.9641 66.0549 30.048C65.7257 29.132 65.2124 28.2932 64.5465 27.5834C63.8807 26.8736 63.0766 26.3079 62.1837 25.9212C61.2908 25.5345 60.3282 25.335 59.3553 25.335C58.3824 25.335 57.4197 25.5345 56.5269 25.9212C55.634 26.3079 54.8299 26.8736 54.164 27.5834C53.4982 28.2932 52.9849 29.132 52.6557 30.048C52.3266 30.9641 52.1886 31.9379 52.2502 32.9093C52.2502 33.0334 52.2502 33.1671 52.2502 33.2912C52.0212 33.0334 51.7826 32.8998 51.5726 32.9571C51.0764 33.0907 50.9237 34.2556 51.2386 35.5541C51.5536 36.8527 52.193 37.7884 52.7179 37.6547C52.8185 37.61 52.9067 37.5414 52.9749 37.4549C53.0431 37.3684 53.0891 37.2666 53.1091 37.1582C54.3402 40.2804 56.6784 43.0685 59.3601 43.0685C62.0418 43.0685 64.3894 40.2041 65.5919 37.12C65.6119 37.2284 65.658 37.3302 65.7262 37.4167C65.7943 37.5032 65.8826 37.5718 65.9832 37.6165C66.489 37.7502 67.1475 36.8145 67.4624 35.5159C67.7774 34.2174 67.6247 33.0907 67.1284 32.9571Z" fill="#FFE2C2"/>
<path d="M54.9986 42.6388C54.9986 42.6388 55.1322 43.861 57.5562 44.5484C59.9802 45.2359 58.3579 46.7731 58.3579 46.7731L56.4492 47.136L55.3517 45.1118L54.8745 43.5841L54.9986 42.6388Z" fill="#FFF8F8"/>
<path d="M63.7214 42.8584C63.7214 42.8584 63.5878 44.0806 61.1638 44.768C58.7397 45.4555 60.3621 46.9927 60.3621 46.9927L62.2708 47.3556L63.3778 45.3505L63.855 43.8228L63.7214 42.8584Z" fill="#FFF8F8"/>
<path d="M54.264 42.1041L52.1167 43.1067L56.5926 50.3728L54.264 42.1041Z" fill="#333030"/>
<path d="M64.4658 42.2473L66.6131 43.2499L62.1372 50.5064L64.4658 42.2473Z" fill="#333030"/>
<path d="M59.0738 47.6324L57.8904 52.3301H61.1829L59.8277 47.6324H59.0738Z" fill="#0C0A0A"/>
<path d="M58.4725 44.873L60.4289 44.9017L60.7916 46.353L60.3908 47.8234H58.5393L58.1003 46.4485L58.4725 44.873Z" fill="#0C0A0A"/>
<path d="M63.7119 26.9132C64.6663 22.1869 50.5516 22.4351 52.2598 33.2913L53.1187 37.1583C56.6908 34.9613 59.8791 32.194 62.5572 28.966C64.0364 29.6344 64.8858 30.8756 65.1721 33.9597L65.5824 37.1583L66.4509 33.2913C66.4509 33.2913 67.682 25.4714 63.7119 26.9132Z" fill="#6B4A3B"/>
<path d="M37.0093 55.099L28.7256 41.8463L33.0583 38.619L43.8233 39.3829L47.9078 43.2021L38.6889 56.0538C38.1736 55.7101 37.5723 55.395 37.0093 55.099Z" fill="#DBD5D5"/>
<path d="M44.7205 40.2041L47.8412 40.9966C47.8412 40.9966 52.6893 41.7604 53.5673 43.0876C55.1706 44.1093 55.2946 56.8464 54.9701 56.8942C54.6457 56.9419 39.8916 56.8942 39.8916 56.8942C39.338 56.5122 38.775 56.159 38.2119 55.8152L44.7205 40.2041Z" fill="#0C0A0A"/>
<path d="M31.7223 40.2041L28.6302 40.9584C28.6302 40.9584 23.7822 41.7222 22.9042 43.0494C21.2913 44.0711 21.1768 56.8082 21.5013 56.856C21.8258 56.9037 40.8744 56.856 40.8744 56.856C41.4279 56.4741 39.4143 56.264 38.2595 55.777L31.7223 40.2041Z" fill="#0C0A0A"/>
<path d="M43.0407 33.4249H33.4019V40.9584H43.0407V33.4249Z" fill="#D1AB86"/>
<path d="M30.4148 28.6031C31.016 34.4752 35.406 38.7527 38.1736 38.7527C41.1606 38.7527 45.2643 34.3033 45.961 28.6031C46.6577 22.9029 42.4776 20.2008 38.1736 20.2008C33.8695 20.2008 29.8517 23.0175 30.4148 28.6031Z" fill="#FFE2C2"/>
<path d="M46.2855 22.8647C45.8947 21.5749 45.1907 20.4021 44.2365 19.4507C43.2824 18.4994 42.1076 17.7993 40.8171 17.4127C38.5458 16.8494 34.4708 16.2097 31.0161 19.7043C30.2347 21.2816 29.7741 22.9984 29.6609 24.7552C29.7731 26.3484 30.0189 27.9294 30.3957 29.4815L31.3501 29.9112C31.0776 28.9156 31.1277 27.8592 31.4932 26.894C31.6604 26.4325 31.8714 25.9881 32.1231 25.5668C34.4231 26.8462 38.8035 25.4427 41.5043 25.7959C43.4129 26.0537 43.7565 28.2307 44.8922 28.2594C44.9517 28.8135 44.9063 29.3738 44.7586 29.9112L45.7129 29.4815C45.7129 29.4815 45.8083 29.1664 45.9706 28.2689C46.085 28.2751 46.1997 28.2751 46.3141 28.2689C46.7484 26.4925 46.7386 24.6364 46.2855 22.8647Z" fill="#0C0A0A"/>
<path d="M45.3026 29.5198C44.9018 30.6847 44.5868 31.8018 45.0735 31.9737C45.5603 32.1455 46.6387 31.2862 47.0395 30.1213C47.4403 28.9565 47.3926 27.8775 46.9154 27.7152C46.4383 27.5529 45.713 28.3549 45.3026 29.5198Z" fill="#FFE2C2"/>
<path d="M31.1306 29.5198C31.5314 30.6847 31.8463 31.8018 31.3596 31.9737C30.8729 32.1455 29.7945 31.2862 29.3937 30.1213C28.9928 28.9565 29.0405 27.8775 29.5177 27.7152C29.9949 27.5529 30.7202 28.3549 31.1306 29.5198Z" fill="#FFE2C2"/>
<path d="M35.7974 42.1996L38.2214 44.2429L40.6454 42.1996L38.2214 40.1659L35.7974 42.1996Z" fill="#0C0A0A"/>
<path d="M38.6604 43.7655L40.0823 50.7452L38.3168 56.4836L36.1313 50.7452L37.7537 43.7655H38.6604Z" fill="#0C0A0A"/>
<path d="M43.3749 37.1772L38.2214 40.204L39.9202 43.8132L43.9475 40.0799C43.9475 40.0799 45.0068 39.803 44.6537 39.3351C44.3006 38.8673 43.4417 38.3994 43.3749 37.1772Z" fill="#FFF8F8"/>
<path d="M33.0584 37.1869L38.1737 40.2041L36.4845 43.8037L32.4477 40.0513C32.4477 40.0513 31.3979 39.784 31.7414 39.3066C32.085 38.8292 32.9916 38.409 33.0584 37.1869Z" fill="#FFF8F8"/>
<path d="M38.2214 55.7674L44.1193 38.7527L46.0948 40.4141L48.1657 41.5312L45.6271 45.761L44.4724 45.7323L45.2072 48.1767L38.2214 55.7674Z" fill="#333030"/>
<path d="M38.2213 55.7674L32.3235 38.7527L30.3384 40.2899L28.0862 41.5312L30.8061 45.761L31.9704 45.7323L31.2355 48.1767L38.2213 55.7674Z" fill="#333030"/>
</g>
<defs>
<linearGradient id="paint0_linear" x1="38.25" y1="0.102051" x2="38.25" y2="76.6396" gradientUnits="userSpaceOnUse">
<stop stop-color="#F2F2F2"/>
<stop offset="1" stop-color="#C9C9C9"/>
</linearGradient>
<clipPath id="clip0">
<rect width="76.5" height="90.2295" fill="white" transform="translate(0 0.102051)"/>
</clipPath>
</defs>
</svg>
