<svg width="22" height="22" viewBox="0 0 22 22" fill="none" xmlns="http://www.w3.org/2000/svg">
<path fill-rule="evenodd" clip-rule="evenodd" d="M5.995 4.58333C6.05 5.39917 6.1875 6.19667 6.4075 6.9575L5.3075 8.0575C4.93167 6.9575 4.69333 5.79333 4.61083 4.58333H5.995V4.58333ZM15.0333 15.6017C15.8125 15.8217 16.61 15.9592 17.4167 16.0142V17.38C16.2067 17.2975 15.0425 17.0592 13.9333 16.6925L15.0333 15.6017V15.6017ZM6.875 2.75H3.66667C3.1625 2.75 2.75 3.1625 2.75 3.66667C2.75 12.2742 9.72583 19.25 18.3333 19.25C18.8375 19.25 19.25 18.8375 19.25 18.3333V15.1342C19.25 14.63 18.8375 14.2175 18.3333 14.2175C17.1967 14.2175 16.0875 14.0342 15.0608 13.695C14.9692 13.6583 14.8683 13.6492 14.7767 13.6492C14.5383 13.6492 14.3092 13.7408 14.1258 13.915L12.1092 15.9317C9.515 14.6025 7.38833 12.485 6.06833 9.89083L8.085 7.87417C8.34167 7.6175 8.415 7.26 8.31417 6.93917C7.975 5.9125 7.79167 4.8125 7.79167 3.66667C7.79167 3.1625 7.37917 2.75 6.875 2.75Z" fill="#E0E5FA"/>
</svg>
