<svg width="64" height="64" viewBox="0 0 64 64" fill="none" xmlns="http://www.w3.org/2000/svg">
<path d="M5.16119 56.7524H32V54.6875H5.16119C3.45097 54.6875 2.06442 53.3009 2.06442 51.5907V6.17132C2.06442 4.46058 3.45097 3.07456 5.16119 3.07456H50.5806C52.2916 3.07456 53.6773 4.46058 53.6773 6.17132V29.9131H55.7423V6.17132C55.7389 3.32216 53.43 1.0135 50.5806 1.01013H5.16119C2.31255 1.0135 0.00362225 3.32216 0 6.17132V51.5907C0.00362225 54.4399 2.31255 56.7485 5.16119 56.7524Z" fill="white" fill-opacity="0.8"/>
<path d="M4.12933 5.13953H6.1935V7.20369H4.12933V5.13953Z" fill="white" fill-opacity="0.8"/>
<path d="M8.25787 5.13953H10.3228V7.20369H8.25787V5.13953Z" fill="white" fill-opacity="0.8"/>
<path d="M12.3871 5.13953H14.4518V7.20369H12.3871V5.13953Z" fill="white" fill-opacity="0.8"/>
<path d="M4.12933 9.26807H51.6129V11.333H4.12933V9.26807Z" fill="white" fill-opacity="0.8"/>
<path d="M14.7541 13.6996L12.1321 16.3216C9.91582 14.8543 6.94791 15.3045 5.26589 17.363C3.58414 19.4212 3.73498 22.4194 5.6144 24.2985C7.49357 26.1785 10.492 26.3293 12.5505 24.6473C14.6087 22.9655 15.0591 19.9971 13.5916 17.7813L16.2134 15.1593L14.7541 13.6996ZM9.28995 23.7195C7.57999 23.7195 6.19345 22.3332 6.19345 20.623C6.19345 18.9125 7.57999 17.5265 9.28995 17.5265C9.75049 17.528 10.2035 17.6336 10.6167 17.8357L8.56058 19.8921L10.0198 21.3518L12.0775 19.2967C12.2796 19.7097 12.3854 20.1627 12.387 20.623C12.387 22.3332 11.0009 23.7195 9.28995 23.7195Z" fill="white" fill-opacity="0.8"/>
<path d="M17.5485 17.5266H35.0964V19.5908H17.5485V17.5266Z" fill="white" fill-opacity="0.8"/>
<path d="M17.5485 21.6554H24.7741V23.7196H17.5485V21.6554Z" fill="white" fill-opacity="0.8"/>
<path d="M26.8387 21.6554H41.2899V23.7196H26.8387V21.6554Z" fill="white" fill-opacity="0.8"/>
<path d="M37.1612 17.5266H47.4839V19.5908H37.1612V17.5266Z" fill="white" fill-opacity="0.8"/>
<path d="M14.7541 26.0867L12.1321 28.7087C9.91582 27.2414 6.94791 27.6916 5.26589 29.7501C3.58414 31.8085 3.73498 34.8065 5.6144 36.6861C7.49357 38.5656 10.492 38.7164 12.5505 37.0344C14.6087 35.3524 15.0591 32.385 13.5916 30.1684L16.2134 27.5464L14.7541 26.0867ZM9.28995 36.1068C7.57999 36.1068 6.19345 34.7203 6.19345 33.0101C6.19345 31.2996 7.57999 29.9131 9.28995 29.9131C9.75049 29.9149 10.2035 30.0207 10.6167 30.2228L8.56058 32.2797L10.0198 33.7389L12.0775 31.6836C12.2796 32.0968 12.3854 32.5498 12.387 33.0101C12.387 34.7203 11.0009 36.1068 9.28995 36.1068Z" fill="white" fill-opacity="0.8"/>
<path d="M17.5485 29.9131H35.0964V31.9777H17.5485V29.9131Z" fill="white" fill-opacity="0.8"/>
<path d="M17.5485 34.0425H24.7741V36.1069H17.5485V34.0425Z" fill="white" fill-opacity="0.8"/>
<path d="M26.8387 34.0425H35.0965V36.1069H26.8387V34.0425Z" fill="white" fill-opacity="0.8"/>
<path d="M37.1612 29.9131H41.2901V31.9777H37.1612V29.9131Z" fill="white" fill-opacity="0.8"/>
<path d="M14.7541 38.4739L12.1321 41.0959C9.91582 39.6286 6.94791 40.0788 5.26589 42.1373C3.58414 44.1958 3.73498 47.1937 5.6144 49.0734C7.49357 50.9531 10.492 51.1034 12.5505 49.4216C14.6087 47.7396 15.0591 44.772 13.5916 42.5554L16.2134 39.9336L14.7541 38.4739ZM9.28995 48.4941C7.57999 48.4941 6.19345 47.1075 6.19345 45.3973C6.19345 43.6868 7.57999 42.3005 9.28995 42.3005C9.75049 42.3021 10.2035 42.4077 10.6167 42.61L8.56058 44.6669L10.0198 46.1262L12.0775 44.0708C12.2796 44.484 12.3854 44.9373 12.387 45.3973C12.387 47.1075 11.0009 48.4941 9.28995 48.4941Z" fill="white" fill-opacity="0.8"/>
<path d="M17.5485 42.3004H30.9676V44.3653H17.5485V42.3004Z" fill="white" fill-opacity="0.8"/>
<path d="M17.5485 46.4294H24.7741V48.4939H17.5485V46.4294Z" fill="white" fill-opacity="0.8"/>
<path d="M26.8387 46.4294H30.9676V48.4939H26.8387V46.4294Z" fill="white" fill-opacity="0.8"/>
<path d="M48.5165 62.946C57.0684 62.946 64 56.013 64 47.4619C64 38.91 57.0684 31.9778 48.5165 31.9778C39.9646 31.9778 33.0324 38.91 33.0324 47.4619C33.0425 56.0091 39.9688 62.9356 48.5165 62.946ZM48.5165 34.0425C55.9274 34.0425 61.9359 40.0505 61.9359 47.4619C61.9359 54.8733 55.9274 60.881 48.5165 60.881C41.1049 60.881 35.0966 54.8733 35.0966 47.4619C35.1054 40.0541 41.1082 34.0507 48.5165 34.0425Z" fill="white" fill-opacity="0.8"/>
<path d="M42.2196 48.0324L40.3717 48.955L42.4364 53.0841C42.5844 53.3811 42.8669 53.5889 43.1947 53.6419C43.248 53.6502 43.3013 53.6546 43.3549 53.6554C43.6284 53.6554 43.891 53.5464 44.085 53.3529L56.4716 40.9659L55.0123 39.5061L43.6374 50.8805L42.2196 48.0324Z" fill="white" fill-opacity="0.8"/>
</svg>
