<svg width="24" height="32" viewBox="0 0 24 32" fill="none" xmlns="http://www.w3.org/2000/svg">
<path d="M23.0484 31.625H2.14844C1.62969 31.625 1.21094 31.2062 1.21094 30.6875V1.3125C1.21094 0.79375 1.62969 0.375 2.14844 0.375H23.0484C23.5672 0.375 23.9859 0.79375 23.9859 1.3125V30.6875C23.9922 31.2062 23.5672 31.625 23.0484 31.625Z" fill="#456CB3"/>
<path d="M23.0305 1.3313H2.16797V30.6625H23.0305V1.3313Z" fill="white"/>
<path d="M18.0246 11.2875H0.00585938V4.05627H18.0246L14.0371 7.67502L18.0246 11.2875Z" fill="#456CB3"/>
<path d="M0.00585938 11.2875L1.21211 12.1812V11.2875H0.00585938Z" fill="#6285C5"/>
<path d="M21.1309 14.65H4.06836C3.79336 14.65 3.56836 14.425 3.56836 14.15V14.1312C3.56836 13.8562 3.79336 13.6312 4.06836 13.6312H21.1309C21.4059 13.6312 21.6309 13.8562 21.6309 14.1312V14.15C21.6309 14.425 21.4059 14.65 21.1309 14.65Z" fill="#456CB3"/>
<path d="M21.1309 16.8312H4.06836C3.79336 16.8312 3.56836 16.6062 3.56836 16.3312V16.3125C3.56836 16.0375 3.79336 15.8125 4.06836 15.8125H21.1309C21.4059 15.8125 21.6309 16.0375 21.6309 16.3125V16.3312C21.6309 16.6062 21.4059 16.8312 21.1309 16.8312Z" fill="#456CB3"/>
<path d="M21.1309 19.0125H4.06836C3.79336 19.0125 3.56836 18.7875 3.56836 18.5125V18.4938C3.56836 18.2188 3.79336 17.9938 4.06836 17.9938H21.1309C21.4059 17.9938 21.6309 18.2188 21.6309 18.4938V18.5125C21.6309 18.7938 21.4059 19.0125 21.1309 19.0125Z" fill="#456CB3"/>
<path d="M21.1309 21.2H4.06836C3.79336 21.2 3.56836 20.975 3.56836 20.7V20.6813C3.56836 20.4063 3.79336 20.1813 4.06836 20.1813H21.1309C21.4059 20.1813 21.6309 20.4063 21.6309 20.6813V20.7C21.6309 20.975 21.4059 21.2 21.1309 21.2Z" fill="#456CB3"/>
<path d="M21.1309 23.3813H4.06836C3.79336 23.3813 3.56836 23.1563 3.56836 22.8813V22.8625C3.56836 22.5875 3.79336 22.3625 4.06836 22.3625H21.1309C21.4059 22.3625 21.6309 22.5875 21.6309 22.8625V22.8813C21.6309 23.1563 21.4059 23.3813 21.1309 23.3813Z" fill="#456CB3"/>
<path d="M21.1309 25.5625H4.06836C3.79336 25.5625 3.56836 25.3375 3.56836 25.0625V25.0437C3.56836 24.7687 3.79336 24.5437 4.06836 24.5437H21.1309C21.4059 24.5437 21.6309 24.7687 21.6309 25.0437V25.0625C21.6309 25.3437 21.4059 25.5625 21.1309 25.5625Z" fill="#456CB3"/>
<path d="M17.0559 27.75H4.06836C3.79336 27.75 3.56836 27.525 3.56836 27.25V27.2312C3.56836 26.9562 3.79336 26.7312 4.06836 26.7312H17.0559C17.3309 26.7312 17.5559 26.9562 17.5559 27.2312V27.25C17.5559 27.525 17.3309 27.75 17.0559 27.75Z" fill="#456CB3"/>
</svg>
