<?xml version="1.0" encoding="UTF-8"?>
<svg xmlns="http://www.w3.org/2000/svg" xmlns:xlink="http://www.w3.org/1999/xlink" width="16px" height="16px" viewBox="0 0 16 16" version="1.1">	
	<title>Favicon</title>
<g id="surface1">
<polygon style=" stroke:none;fill-rule:nonzero;fill:rgb(22.745098%,30.196078%,45.882353%);fill-opacity:1;" points="1.644531 5.972656 C 2.832031 3.074219 5.679688 1.03125 9.003906 1.03125 C 12.328125 1.03125 15.175781 3.074219 16.367188 5.972656 L 17.472656 5.972656 C 16.230469 2.492188 12.90625 0 9.003906 0 C 5.101562 0 1.78125 2.492188 0.539062 5.972656 Z M 1.644531 5.972656 "/>
<path style=" stroke:none;fill-rule:nonzero;fill:rgb(22.745098%,30.196078%,45.882353%);fill-opacity:1;" d="M 16.351562 12.066406 C 15.152344 14.945312 12.3125 16.96875 9.003906 16.96875 C 5.695312 16.96875 2.859375 14.945312 1.660156 12.066406 L 0.550781 12.066406 C 1.804688 15.527344 5.117188 18 9.003906 18 C 12.894531 18 16.207031 15.527344 17.457031 12.066406 Z M 16.351562 12.066406 "/>
<path style=" stroke:none;fill-rule:nonzero;fill:rgb(22.745098%,30.196078%,45.882353%);fill-opacity:1;" d="M 1.597656 7.296875 C 1.6875 7.296875 1.773438 7.257812 1.835938 7.195312 C 1.898438 7.132812 1.933594 7.046875 1.933594 6.960938 L 1.933594 6.792969 C 1.933594 6.703125 1.898438 6.621094 1.835938 6.554688 C 1.773438 6.492188 1.6875 6.457031 1.597656 6.457031 L 0.335938 6.457031 C 0.246094 6.457031 0.160156 6.492188 0.0976562 6.554688 C 0.0351562 6.621094 0 6.703125 0 6.792969 L 0 6.960938 C 0 7.046875 0.0351562 7.132812 0.0976562 7.195312 C 0.160156 7.257812 0.246094 7.296875 0.335938 7.296875 L 0.582031 7.296875 L 0.582031 10.890625 L 0.335938 10.890625 C 0.246094 10.890625 0.160156 10.929688 0.0976562 10.992188 C 0.0351562 11.054688 0 11.140625 0 11.226562 L 0 11.394531 C 0 11.484375 0.0351562 11.566406 0.0976562 11.632812 C 0.160156 11.695312 0.246094 11.730469 0.335938 11.730469 L 1.597656 11.730469 C 1.6875 11.730469 1.773438 11.695312 1.835938 11.632812 C 1.898438 11.566406 1.933594 11.484375 1.933594 11.394531 L 1.933594 11.226562 C 1.933594 11.140625 1.898438 11.054688 1.835938 10.992188 C 1.773438 10.929688 1.6875 10.890625 1.597656 10.890625 L 1.355469 10.890625 L 1.355469 7.296875 Z M 1.597656 7.296875 "/>
<path style=" stroke:none;fill-rule:nonzero;fill:rgb(22.745098%,30.196078%,45.882353%);fill-opacity:1;" d="M 7.273438 6.453125 L 7.140625 6.453125 C 7.066406 6.453125 6.996094 6.480469 6.941406 6.535156 C 6.886719 6.589844 6.859375 6.660156 6.859375 6.734375 L 6.859375 7.386719 C 6.605469 7.066406 6.28125 6.808594 5.910156 6.632812 C 5.542969 6.457031 5.140625 6.363281 4.730469 6.363281 C 3.226562 6.363281 2.003906 7.585938 2.003906 9.09375 C 2.003906 10.601562 3.226562 11.824219 4.730469 11.824219 C 5.140625 11.824219 5.542969 11.730469 5.910156 11.554688 C 6.28125 11.378906 6.605469 11.121094 6.859375 10.800781 L 6.859375 11.441406 C 6.859375 11.515625 6.886719 11.585938 6.941406 11.640625 C 6.996094 11.691406 7.066406 11.722656 7.140625 11.722656 L 7.273438 11.722656 C 7.347656 11.722656 7.421875 11.691406 7.472656 11.640625 C 7.527344 11.585938 7.558594 11.515625 7.558594 11.441406 L 7.558594 6.734375 C 7.558594 6.660156 7.527344 6.589844 7.472656 6.535156 C 7.421875 6.480469 7.347656 6.453125 7.273438 6.453125 Z M 4.730469 11.21875 C 4.3125 11.21875 3.902344 11.09375 3.550781 10.859375 C 3.203125 10.625 2.933594 10.292969 2.769531 9.90625 C 2.609375 9.519531 2.570312 9.089844 2.652344 8.679688 C 2.730469 8.265625 2.933594 7.886719 3.230469 7.589844 C 3.527344 7.292969 3.90625 7.09375 4.316406 7.011719 C 4.730469 6.929688 5.15625 6.96875 5.542969 7.132812 C 5.929688 7.292969 6.261719 7.5625 6.496094 7.914062 C 6.730469 8.261719 6.855469 8.671875 6.855469 9.09375 C 6.855469 9.65625 6.628906 10.199219 6.230469 10.597656 C 5.835938 10.996094 5.292969 11.21875 4.730469 11.21875 Z M 4.730469 11.21875 "/>
<path style=" stroke:none;fill-rule:nonzero;fill:rgb(22.745098%,30.196078%,45.882353%);fill-opacity:1;" d="M 13.425781 6.453125 L 13.292969 6.453125 C 13.21875 6.453125 13.144531 6.480469 13.09375 6.535156 C 13.039062 6.589844 13.007812 6.660156 13.007812 6.734375 L 13.007812 7.386719 C 12.753906 7.066406 12.429688 6.808594 12.0625 6.632812 C 11.695312 6.457031 11.289062 6.363281 10.882812 6.363281 C 9.375 6.363281 8.15625 7.585938 8.15625 9.09375 C 8.15625 10.601562 9.375 11.824219 10.882812 11.824219 C 11.289062 11.824219 11.695312 11.730469 12.0625 11.554688 C 12.429688 11.378906 12.753906 11.121094 13.007812 10.800781 L 13.007812 11.441406 C 13.007812 11.515625 13.039062 11.585938 13.09375 11.640625 C 13.144531 11.691406 13.21875 11.722656 13.292969 11.722656 L 13.425781 11.722656 C 13.460938 11.722656 13.5 11.714844 13.535156 11.703125 C 13.566406 11.6875 13.597656 11.667969 13.625 11.640625 C 13.652344 11.613281 13.671875 11.582031 13.6875 11.546875 C 13.699219 11.511719 13.707031 11.476562 13.707031 11.441406 L 13.707031 6.734375 C 13.707031 6.699219 13.699219 6.660156 13.6875 6.625 C 13.671875 6.59375 13.652344 6.5625 13.625 6.535156 C 13.597656 6.507812 13.566406 6.488281 13.535156 6.472656 C 13.5 6.460938 13.460938 6.453125 13.425781 6.453125 Z M 10.882812 11.21875 C 10.460938 11.21875 10.050781 11.09375 9.703125 10.859375 C 9.355469 10.625 9.082031 10.292969 8.921875 9.90625 C 8.761719 9.519531 8.71875 9.089844 8.800781 8.679688 C 8.882812 8.265625 9.085938 7.886719 9.382812 7.589844 C 9.679688 7.292969 10.058594 7.09375 10.46875 7.011719 C 10.878906 6.929688 11.304688 6.96875 11.695312 7.132812 C 12.082031 7.292969 12.414062 7.5625 12.648438 7.914062 C 12.878906 8.261719 13.003906 8.671875 13.003906 9.09375 C 13.003906 9.65625 12.78125 10.199219 12.382812 10.597656 C 11.984375 10.996094 11.445312 11.21875 10.882812 11.21875 Z M 10.882812 11.21875 "/>
<path style=" stroke:none;fill-rule:nonzero;fill:rgb(22.745098%,30.196078%,45.882353%);fill-opacity:1;" d="M 17.9375 9.960938 C 17.914062 9.285156 17.15625 9.207031 17.082031 9.199219 C 17.15625 9.203125 17.9375 9.222656 17.9375 7.925781 C 17.9375 6.5625 16.402344 6.464844 16.402344 6.464844 L 14.730469 6.464844 C 14.6875 6.464844 14.644531 6.480469 14.617188 6.511719 C 14.585938 6.542969 14.570312 6.582031 14.570312 6.625 L 14.570312 11.574219 C 14.570312 11.617188 14.585938 11.660156 14.617188 11.6875 C 14.644531 11.71875 14.6875 11.734375 14.730469 11.734375 L 15.109375 11.734375 C 15.152344 11.734375 15.191406 11.71875 15.222656 11.6875 C 15.25 11.660156 15.269531 11.617188 15.269531 11.574219 L 15.269531 9.550781 C 15.269531 9.550781 15.550781 9.554688 16.535156 9.542969 C 17.519531 9.53125 17.257812 10.269531 17.195312 11.078125 C 17.132812 11.890625 18 11.824219 18 11.824219 L 18 11.222656 C 17.613281 11.148438 17.960938 10.675781 17.9375 9.960938 Z M 16.421875 8.855469 L 15.269531 8.855469 L 15.269531 7.144531 L 16.460938 7.144531 C 16.460938 7.144531 17.296875 7.15625 17.296875 8.007812 C 17.296875 8.855469 16.421875 8.855469 16.421875 8.855469 Z M 16.421875 8.855469 "/>
</g>
</svg>
