<svg width="66" height="66" viewBox="0 0 66 66" fill="none" xmlns="http://www.w3.org/2000/svg">
<g clip-path="url(#clip0)">
<path d="M6.02383 21.8931C10.3898 11.2672 20.8309 3.78779 33.0172 3.78779C45.2034 3.78779 55.6445 11.2672 60.0105 21.8931H64.0631C59.5082 9.13191 47.3283 0 33.0172 0C18.706 0 6.52612 9.13191 1.97119 21.8931H6.02383Z" fill="white"/>
<path d="M59.9533 44.2444C55.5543 54.7961 45.1508 62.2123 33.0171 62.2123C20.8835 62.2123 10.4799 54.7961 6.08101 44.2444H2.0206C6.61349 56.9314 18.7577 66.0001 33.0171 66.0001C47.2766 66.0001 59.4208 56.9314 64.0137 44.2444H59.9533Z" fill="white"/>
<path d="M5.86235 26.7481C6.18811 26.7481 6.50052 26.6186 6.73087 26.388C6.96122 26.1573 7.09063 25.8445 7.09063 25.5184V24.9092C7.09063 24.5831 6.96122 24.2703 6.73087 24.0396C6.50052 23.809 6.18811 23.6794 5.86235 23.6794H1.22828C0.902519 23.6794 0.590102 23.809 0.359755 24.0396C0.129408 24.2703 0 24.5831 0 24.9092L0 25.5184C0 25.8445 0.129408 26.1573 0.359755 26.388C0.590102 26.6186 0.902519 26.7481 1.22828 26.7481H2.12719V39.939H1.22828C0.902519 39.939 0.590102 40.0685 0.359755 40.2992C0.129408 40.5298 0 40.8426 0 41.1688L0 41.7779C0 42.1041 0.129408 42.4169 0.359755 42.6475C0.590102 42.8781 0.902519 43.0077 1.22828 43.0077H5.86235C6.18811 43.0077 6.50052 42.8781 6.73087 42.6475C6.96122 42.4169 7.09063 42.1041 7.09063 41.7779V41.1688C7.09063 40.8426 6.96122 40.5298 6.73087 40.2992C6.50052 40.0685 6.18811 39.939 5.86235 39.939H4.96344V26.7481H5.86235Z" fill="white"/>
<path d="M26.6722 23.6563H26.1873C25.9119 23.6563 25.6477 23.7658 25.453 23.9608C25.2583 24.1558 25.1489 24.4203 25.1489 24.696V27.0855C24.2133 25.9143 23.0264 24.969 21.6762 24.3199C20.3259 23.6707 18.847 23.3344 17.3492 23.3357C11.829 23.3357 7.35367 27.8165 7.35367 33.3433C7.35367 38.8702 11.829 43.351 17.3492 43.351C18.847 43.3523 20.3259 43.0159 21.6762 42.3668C23.0264 41.7177 24.2133 40.7724 25.1489 39.6012V41.9449C25.1489 42.2206 25.2583 42.4851 25.453 42.6801C25.6477 42.875 25.9119 42.9846 26.1873 42.9846H26.6722C26.9476 42.9846 27.2117 42.875 27.4065 42.6801C27.6012 42.4851 27.7106 42.2206 27.7106 41.9449V24.696C27.7106 24.4203 27.6012 24.1558 27.4065 23.9608C27.2117 23.7658 26.9476 23.6563 26.6722 23.6563ZM17.3492 41.1333C15.8103 41.1333 14.3061 40.6764 13.0266 39.8204C11.7471 38.9645 10.7498 37.7479 10.1609 36.3244C9.57206 34.901 9.41798 33.3347 9.71819 31.8236C10.0184 30.3125 10.7594 28.9245 11.8475 27.835C12.9357 26.7456 14.322 26.0037 15.8313 25.7031C17.3405 25.4025 18.9049 25.5568 20.3266 26.1464C21.7483 26.736 22.9635 27.7344 23.8184 29.0155C24.6733 30.2965 25.1296 31.8026 25.1296 33.3433C25.1296 35.4094 24.3099 37.3908 22.8508 38.8517C21.3917 40.3126 19.4127 41.1333 17.3492 41.1333V41.1333Z" fill="white"/>
<path d="M49.225 23.6563H48.74C48.4646 23.6563 48.2005 23.7658 48.0058 23.9608C47.811 24.1558 47.7016 24.4203 47.7016 24.696V27.0855C46.7661 25.9143 45.5792 24.969 44.2289 24.3199C42.8787 23.6707 41.3998 23.3344 39.9019 23.3357C34.3818 23.3357 29.9064 27.8165 29.9064 33.3433C29.9064 38.8702 34.3818 43.351 39.9019 43.351C41.3998 43.3523 42.8787 43.0159 44.2289 42.3668C45.5792 41.7177 46.7661 40.7724 47.7016 39.6012V41.9449C47.7016 42.2206 47.811 42.4851 48.0058 42.6801C48.2005 42.875 48.4646 42.9846 48.74 42.9846H49.225C49.3613 42.9846 49.4964 42.9577 49.6223 42.9054C49.7483 42.8532 49.8628 42.7766 49.9592 42.6801C50.0557 42.5835 50.1322 42.4689 50.1843 42.3428C50.2365 42.2166 50.2634 42.0814 50.2634 41.9449V24.696C50.2634 24.5595 50.2365 24.4243 50.1843 24.2981C50.1322 24.172 50.0557 24.0574 49.9592 23.9608C49.8628 23.8643 49.7483 23.7877 49.6223 23.7354C49.4964 23.6832 49.3613 23.6563 49.225 23.6563ZM39.9019 41.1333C38.3631 41.1333 36.8588 40.6764 35.5793 39.8204C34.2998 38.9645 33.3026 37.7479 32.7137 36.3244C32.1248 34.901 31.9707 33.3347 32.271 31.8236C32.5712 30.3125 33.3122 28.9245 34.4003 27.835C35.4884 26.7456 36.8748 26.0037 38.384 25.7031C39.8933 25.4025 41.4577 25.5568 42.8794 26.1464C44.3011 26.736 45.5162 27.7344 46.3712 29.0155C47.2261 30.2965 47.6824 31.8026 47.6824 33.3433C47.6824 35.4094 46.8627 37.3908 45.4036 38.8517C43.9444 40.3126 41.9654 41.1333 39.9019 41.1333V41.1333Z" fill="white"/>
<path d="M65.7713 36.5268C65.6844 34.0444 62.9085 33.7567 62.6363 33.7329C62.9108 33.7499 65.7713 33.8099 65.7713 29.0612C65.7713 24.0688 60.1445 23.7024 60.1445 23.7024H54.0054C53.8501 23.7024 53.7012 23.7642 53.5914 23.8741C53.4816 23.984 53.4199 24.1332 53.4199 24.2887V42.4444C53.4199 42.5998 53.4816 42.749 53.5914 42.8589C53.7012 42.9688 53.8501 43.0306 54.0054 43.0306H55.3984C55.5537 43.0306 55.7026 42.9688 55.8124 42.8589C55.9222 42.749 55.9839 42.5998 55.9839 42.4444V35.0245C55.9839 35.0245 57.0132 35.0373 60.6271 34.9915C64.2411 34.9457 63.2804 37.648 63.0517 40.6251C62.8229 43.6022 66.0023 43.3503 66.0023 43.3503V41.1518C64.5819 40.8779 65.8628 39.1375 65.7713 36.5268ZM60.2131 32.4734H55.9816V26.1986H60.3504C60.3504 26.1986 63.4154 26.2444 63.4154 29.3589C63.4154 32.4734 60.2131 32.4734 60.2131 32.4734Z" fill="white"/>
</g>
<defs>
<clipPath id="clip0">
<rect width="66" height="66" fill="white"/>
</clipPath>
</defs>
</svg>
