<svg width="14" height="14" viewBox="0 0 14 14" fill="none" xmlns="http://www.w3.org/2000/svg">
<path fill-rule="evenodd" clip-rule="evenodd" d="M6.99984 1.16666C3.77984 1.16666 1.1665 3.77999 1.1665 6.99999C1.1665 10.22 3.77984 12.8333 6.99984 12.8333C10.2198 12.8333 12.8332 10.22 12.8332 6.99999C12.8332 3.77999 10.2198 1.16666 6.99984 1.16666ZM7.5828 11.0834H6.41614V9.91672H7.5828V11.0834ZM8.7903 6.56252L8.2653 7.09919C7.8453 7.52502 7.5828 7.87502 7.5828 8.75002H6.41614V8.45835C6.41614 7.81669 6.67864 7.23335 7.09864 6.80752L7.82197 6.07252C8.0378 5.86252 8.16614 5.57085 8.16614 5.25002C8.16614 4.60835 7.64114 4.08335 6.99947 4.08335C6.3578 4.08335 5.8328 4.60835 5.8328 5.25002H4.66614C4.66614 3.96085 5.7103 2.91669 6.99947 2.91669C8.28864 2.91669 9.3328 3.96085 9.3328 5.25002C9.3328 5.76335 9.1228 6.23002 8.7903 6.56252Z" fill="#1D1D1D" fill-opacity="0.4"/>
</svg>
