<svg width="72" height="74" viewBox="0 0 72 74" fill="none" xmlns="http://www.w3.org/2000/svg">
<g clip-path="url(#clip0)">
<path d="M6.57145 24.5468C11.3344 12.6329 22.7246 4.24691 36.0187 4.24691C49.3128 4.24691 60.7031 12.6329 65.466 24.5468H69.8871C64.9181 10.2388 51.6309 0 36.0187 0C20.4065 0 7.1194 10.2388 2.15039 24.5468H6.57145Z" fill="#3A4D75"/>
<path d="M65.4036 49.6073C60.6047 61.438 49.2554 69.7531 36.0187 69.7531C22.782 69.7531 11.4327 61.438 6.63382 49.6073H2.20428C7.21471 63.8321 20.4629 74 36.0187 74C51.5745 74 64.8227 63.8321 69.8331 49.6073H65.4036Z" fill="#3A4D75"/>
<path d="M6.39529 29.9903C6.75066 29.9903 7.09148 29.845 7.34277 29.5864C7.59406 29.3279 7.73523 28.9771 7.73523 28.6115V27.9285C7.73523 27.5628 7.59406 27.2121 7.34277 26.9535C7.09148 26.6949 6.75066 26.5496 6.39529 26.5496H1.33994C0.984567 26.5496 0.643747 26.6949 0.39246 26.9535C0.141172 27.2121 0 27.5628 0 27.9285L0 28.6115C0 28.9771 0.141172 29.3279 0.39246 29.5864C0.643747 29.845 0.984567 29.9903 1.33994 29.9903H2.32057V44.78H1.33994C0.984567 44.78 0.643747 44.9253 0.39246 45.1839C0.141172 45.4424 0 45.7932 0 46.1588L0 46.8418C0 47.2075 0.141172 47.5582 0.39246 47.8168C0.643747 48.0754 0.984567 48.2207 1.33994 48.2207H6.39529C6.75066 48.2207 7.09148 48.0754 7.34277 47.8168C7.59406 47.5582 7.73523 47.2075 7.73523 46.8418V46.1588C7.73523 45.7932 7.59406 45.4424 7.34277 45.1839C7.09148 44.9253 6.75066 44.78 6.39529 44.78H5.41466V29.9903H6.39529Z" fill="#3A4D75"/>
<path d="M29.0969 26.524H28.5679C28.2674 26.524 27.9793 26.6468 27.7669 26.8654C27.5544 27.084 27.4351 27.3805 27.4351 27.6897V30.3688C26.4145 29.0556 25.1197 27.9958 23.6467 27.268C22.1737 26.5402 20.5603 26.163 18.9263 26.1645C12.9043 26.1645 8.02213 31.1884 8.02213 37.3851C8.02213 43.5819 12.9043 48.6058 18.9263 48.6058C20.5603 48.6073 22.1737 48.2301 23.6467 47.5023C25.1197 46.7745 26.4145 45.7147 27.4351 44.4015V47.0292C27.4351 47.3384 27.5544 47.6349 27.7669 47.8535C27.9793 48.0721 28.2674 48.195 28.5679 48.195H29.0969C29.3973 48.195 29.6855 48.0721 29.8979 47.8535C30.1104 47.6349 30.2297 47.3384 30.2297 47.0292V27.6897C30.2297 27.3805 30.1104 27.084 29.8979 26.8654C29.6855 26.6468 29.3973 26.524 29.0969 26.524ZM18.9263 46.1193C17.2476 46.1193 15.6065 45.607 14.2107 44.6473C12.8149 43.6876 11.727 42.3235 11.0846 40.7275C10.4422 39.1316 10.2741 37.3755 10.6016 35.6812C10.9291 33.9869 11.7375 32.4307 12.9245 31.2092C14.1116 29.9877 15.6239 29.1558 17.2704 28.8188C18.9169 28.4818 20.6235 28.6548 22.1744 29.3159C23.7254 29.9769 25.051 31.0964 25.9836 32.5327C26.9163 33.969 27.4141 35.6577 27.4141 37.3851C27.4141 39.7016 26.5198 41.9231 24.9281 43.5611C23.3363 45.1991 21.1774 46.1193 18.9263 46.1193Z" fill="#3A4D75"/>
<path d="M53.6999 26.524H53.1709C52.8705 26.524 52.5823 26.6468 52.3699 26.8654C52.1574 27.084 52.0381 27.3805 52.0381 27.6897V30.3688C51.0175 29.0556 49.7227 27.9958 48.2497 27.268C46.7767 26.5402 45.1633 26.163 43.5293 26.1645C37.5073 26.1645 32.6252 31.1884 32.6252 37.3851C32.6252 43.5819 37.5073 48.6058 43.5293 48.6058C45.1633 48.6073 46.7767 48.2301 48.2497 47.5023C49.7227 46.7745 51.0175 45.7147 52.0381 44.4015V47.0292C52.0381 47.3384 52.1574 47.6349 52.3699 47.8535C52.5823 48.0721 52.8705 48.195 53.1709 48.195H53.6999C53.8487 48.195 53.996 48.1648 54.1334 48.1062C54.2709 48.0476 54.3958 47.9618 54.501 47.8535C54.6061 47.7453 54.6896 47.6168 54.7465 47.4754C54.8035 47.3339 54.8328 47.1823 54.8328 47.0292V27.6897C54.8328 27.5366 54.8035 27.385 54.7465 27.2436C54.6896 27.1022 54.6061 26.9736 54.501 26.8654C54.3958 26.7572 54.2709 26.6713 54.1334 26.6127C53.996 26.5541 53.8487 26.524 53.6999 26.524ZM43.5293 46.1193C41.8506 46.1193 40.2096 45.607 38.8138 44.6473C37.418 43.6876 36.3301 42.3235 35.6876 40.7275C35.0452 39.1316 34.8771 37.3755 35.2046 35.6812C35.5321 33.9869 36.3405 32.4307 37.5276 31.2092C38.7146 29.9877 40.227 29.1558 41.8734 28.8188C43.5199 28.4818 45.2265 28.6548 46.7775 29.3159C48.3284 29.9769 49.654 31.0964 50.5867 32.5327C51.5193 33.969 52.0171 35.6577 52.0171 37.3851C52.0171 39.7016 51.1229 41.9231 49.5311 43.5611C47.9393 45.1991 45.7804 46.1193 43.5293 46.1193Z" fill="#3A4D75"/>
<path d="M71.7505 40.9542C71.6557 38.1708 68.6275 37.8483 68.3305 37.8216C68.63 37.8406 71.7505 37.9079 71.7505 32.5836C71.7505 26.9861 65.6122 26.5753 65.6122 26.5753H58.915C58.7456 26.5753 58.5831 26.6446 58.4633 26.7678C58.3435 26.8911 58.2762 27.0583 58.2762 27.2326V47.589C58.2762 47.7633 58.3435 47.9305 58.4633 48.0538C58.5831 48.1771 58.7456 48.2463 58.915 48.2463H60.4346C60.604 48.2463 60.7665 48.1771 60.8863 48.0538C61.0061 47.9305 61.0734 47.7633 61.0734 47.589V39.2698C61.0734 39.2698 62.1963 39.2842 66.1387 39.2328C70.0812 39.1815 69.0332 42.2113 68.7837 45.5493C68.5342 48.8872 72.0025 48.6048 72.0025 48.6048V46.1398C70.453 45.8327 71.8503 43.8813 71.7505 40.9542ZM65.6871 36.4094H61.0709V29.374H65.8368C65.8368 29.374 69.1804 29.4254 69.1804 32.9174C69.1804 36.4094 65.6871 36.4094 65.6871 36.4094Z" fill="#3A4D75"/>
</g>
<defs>
<clipPath id="clip0">
<rect width="72" height="74" fill="white"/>
</clipPath>
</defs>
</svg>
