<?xml version="1.0"?>
<svg xmlns="http://www.w3.org/2000/svg" id="Outline" height="512px" viewBox="0 0 512 512" width="512px" class=""><g><path d="m410.854 285.162a8 8 0 0 0 -11.315 0l-9.372 9.372-8-8v-32.4a76.285 76.285 0 0 0 -76.285-76.284h-.4l-15.03-15.03a84.656 84.656 0 0 0 -56.905-24.9l-13.085-13.085 9.373-9.372a8 8 0 0 0 0-11.314l-79.2-79.2-11.312 11.311 73.54 73.539-113.137 113.137-73.538-73.536-11.315 11.31 79.195 79.2a8 8 0 0 0 11.315 0l7.764-7.765 13.02 13.02v36.686a23.989 23.989 0 0 0 32 22.623v9.377a23.989 23.989 0 0 0 32 22.623v9.377a23.989 23.989 0 0 0 32 22.623v9.377a23.986 23.986 0 0 0 41.869 16h10.818l8 8-7.765 7.765a8 8 0 0 0 0 11.314l79.2 79.2 11.311-11.322-73.54-73.539 113.14-113.137 73.538 73.539 11.315-11.314zm-164.687 100.686a8.009 8.009 0 0 1 -8-8v-64h-16v32a8 8 0 0 1 -16 0v-64h-16v32a8 8 0 0 1 -16 0v-56h-16v24a8 8 0 0 1 -16 0v-40a8 8 0 0 0 -2.343-5.657l-15.363-15.363 84.686-84.686 15.363 15.358a8 8 0 0 0 5.657 2.344 68.8 68.8 0 0 1 48.97 20.284l3.716 3.716h-76.686a8 8 0 0 0 -8 8 60.5 60.5 0 0 0 44.485 58.243l11.515 3.14v130.621a8.009 8.009 0 0 1 -8 8zm37.657-5.657a8 8 0 0 0 -5.657-2.343h-8v-126.254l16 4.364v1.89a40.045 40.045 0 0 0 40 40 8 8 0 0 0 0-16 24.027 24.027 0 0 1 -24-24v-8a8 8 0 0 0 -5.9-7.719l-49.41-13.475a44.49 44.49 0 0 1 -31.957-34.806h90.986a60.283 60.283 0 0 1 60.285 60.284v35.716a8 8 0 0 0 2.343 5.656l10.343 10.344-84.686 84.685z" data-original="#000000" class="active-path" data-old_color="#000000" fill="#FFFFFF"/><path d="m318 407.269h16v16h-16z" transform="matrix(.707 -.707 .707 .707 -198.162 352.192)" data-original="#000000" class="active-path" data-old_color="#000000" fill="#FFFFFF"/><path d="m91.726 180.995h16v16h-16z" transform="matrix(.707 -.707 .707 .707 -104.429 125.868)" data-original="#000000" class="active-path" data-old_color="#000000" fill="#FFFFFF"/><path d="m72 232h-16v248a8 8 0 0 0 8 8h240v-16h-232z" data-original="#000000" class="active-path" data-old_color="#000000" fill="#FFFFFF"/><path d="m440 296h16v-264a8 8 0 0 0 -8-8h-264v16h256z" data-original="#000000" class="active-path" data-old_color="#000000" fill="#FFFFFF"/><path d="m376 64a40 40 0 1 0 40 40 40.045 40.045 0 0 0 -40-40zm0 64a24 24 0 1 1 24-24 24.028 24.028 0 0 1 -24 24z" data-original="#000000" class="active-path" data-old_color="#000000" fill="#FFFFFF"/><path d="m368 96h16v16h-16z" data-original="#000000" class="active-path" data-old_color="#000000" fill="#FFFFFF"/><path d="m368 160h48v16h-48z" data-original="#000000" class="active-path" data-old_color="#000000" fill="#FFFFFF"/><path d="m392 192h24v16h-24z" data-original="#000000" class="active-path" data-old_color="#000000" fill="#FFFFFF"/><path d="m400 224h16v16h-16z" data-original="#000000" class="active-path" data-old_color="#000000" fill="#FFFFFF"/><path d="m96 432h16v16h-16z" data-original="#000000" class="active-path" data-old_color="#000000" fill="#FFFFFF"/><path d="m96 392h112v16h-112z" data-original="#000000" class="active-path" data-old_color="#000000" fill="#FFFFFF"/><path d="m96 360h80v16h-80z" data-original="#000000" class="active-path" data-old_color="#000000" fill="#FFFFFF"/><path d="m96 328h48v16h-48z" data-original="#000000" class="active-path" data-old_color="#000000" fill="#FFFFFF"/><path d="m128 432h16v16h-16z" data-original="#000000" class="active-path" data-old_color="#000000" fill="#FFFFFF"/><path d="m160 432h16v16h-16z" data-original="#000000" class="active-path" data-old_color="#000000" fill="#FFFFFF"/><path d="m24 272h16v160h-16z" data-original="#000000" class="active-path" data-old_color="#000000" fill="#FFFFFF"/><path d="m24 448h16v16h-16z" data-original="#000000" class="active-path" data-old_color="#000000" fill="#FFFFFF"/><path d="m472 64h16v176h-16z" data-original="#000000" class="active-path" data-old_color="#000000" fill="#FFFFFF"/></g> </svg>
