<svg width="60" height="60" viewBox="0 0 60 60" fill="none" xmlns="http://www.w3.org/2000/svg">
<circle cx="30" cy="30" r="29.5" stroke="#456CB3"/>
<g clip-path="url(#clip0)">
<rect width="29" height="29" transform="translate(19 15)" fill="white"/>
<path d="M23.8081 23.7538H35.5998C36.0666 23.7538 36.445 23.3754 36.445 22.9085C36.445 22.4417 36.0666 22.0633 35.5998 22.0633H23.8081C23.3413 22.0633 22.9628 22.4417 22.9628 22.9085C22.9628 23.3754 23.3413 23.7538 23.8081 23.7538Z" fill="#456CB3"/>
<path d="M23.8081 26.6577H35.5998C36.0666 26.6577 36.445 26.2793 36.445 25.8125C36.445 25.3457 36.0666 24.9672 35.5998 24.9672H23.8081C23.3413 24.9672 22.9628 25.3457 22.9628 25.8125C22.9628 26.2793 23.3413 26.6577 23.8081 26.6577Z" fill="#456CB3"/>
<path d="M30.046 36.5829H23.8081C23.3413 36.5829 22.9628 36.9614 22.9628 37.4282C22.9628 37.895 23.3413 38.2734 23.8081 38.2734H30.0459C30.5127 38.2734 30.8912 37.895 30.8912 37.4282C30.8912 36.9614 30.5128 36.5829 30.046 36.5829Z" fill="#456CB3"/>
<path d="M47.5896 17.525L45.1045 16.034C44.9122 15.9187 44.6821 15.8843 44.4646 15.9387C44.2471 15.9931 44.0601 16.1317 43.9448 16.3238L39.6184 23.5344V18.4241C39.6184 17.9573 39.2399 17.5789 38.7731 17.5789H19.8453C19.3784 17.5789 19 17.9573 19 18.4241V42.2412C19 42.7081 19.3784 43.0865 19.8453 43.0865H38.7731C39.2399 43.0865 39.6184 42.7081 39.6184 42.2412V32.4529L47.8795 18.6847C48.1196 18.2844 47.9898 17.7653 47.5896 17.525ZM36.6733 34.0754L35.2706 35.2398L35.6379 33.4541L43.7466 19.9399L44.7821 20.5612L36.6733 34.0754ZM45.6518 19.1116L44.6164 18.4903L44.9596 17.9184L45.995 18.5397L45.6518 19.1116ZM20.6905 41.396V19.2694H37.9278V26.3519L36.435 28.8398C36.4409 28.7994 36.445 28.7585 36.445 28.7164C36.445 28.2496 36.0666 27.8712 35.5997 27.8712H23.8081C23.3413 27.8712 22.9628 28.2496 22.9628 28.7164C22.9628 29.1833 23.3413 29.5617 23.8081 29.5617H35.5997C35.788 29.5617 35.9612 29.4994 36.1016 29.3954L35.2737 30.7751H23.8081C23.3413 30.7751 22.9628 31.1536 22.9628 31.6204C22.9628 32.0872 23.3413 32.4657 23.8081 32.4657H34.2594L34.114 32.7079C34.065 32.7896 34.0301 32.8791 34.0109 32.9725L33.8656 33.679H23.8081C23.3413 33.679 22.9628 34.0574 22.9628 34.5242C22.9628 34.9911 23.3413 35.3695 23.8081 35.3695H33.5179L33.1294 37.2579C33.0571 37.6094 33.2147 37.9683 33.5225 38.1531C33.657 38.2337 33.8074 38.2736 33.9573 38.2736C34.1501 38.2736 34.3419 38.2078 34.4973 38.0787L37.8638 35.2842C37.8869 35.265 37.9069 35.2427 37.9278 35.2213V41.396H20.6905Z" fill="#456CB3"/>
</g>
<defs>
<clipPath id="clip0">
<rect width="29" height="29" fill="white" transform="translate(19 15)"/>
</clipPath>
</defs>
</svg>
