<svg width="60" height="60" viewBox="0 0 60 60" fill="none" xmlns="http://www.w3.org/2000/svg">
<path d="M41.8125 22.125C41.2109 22.125 40.696 22.3392 40.2676 22.7676C39.8392 23.196 39.625 23.7109 39.625 24.3125C39.625 24.5312 39.6706 24.7682 39.7617 25.0234L34.4297 29.6172C34.0104 29.2891 33.5547 29.125 33.0625 29.125C32.4792 29.125 31.9688 29.3346 31.5312 29.7539L27.3477 27.6484C27.3112 27.0833 27.0879 26.6048 26.6777 26.2129C26.2676 25.821 25.7708 25.625 25.1875 25.625C24.7865 25.625 24.4173 25.7207 24.0801 25.9121C23.7428 26.1035 23.4785 26.3678 23.2871 26.7051C23.0957 27.0423 23 27.4115 23 27.8125C23 28.1224 23.0729 28.4323 23.2188 28.7422L18.9531 33.6367C18.6979 33.5456 18.4427 33.5 18.1875 33.5C17.5859 33.5 17.071 33.7142 16.6426 34.1426C16.2142 34.571 16 35.0859 16 35.6875C16 36.2891 16.2142 36.804 16.6426 37.2324C17.071 37.6608 17.5859 37.875 18.1875 37.875C18.7891 37.875 19.304 37.6608 19.7324 37.2324C20.1608 36.804 20.375 36.2891 20.375 35.6875C20.375 35.4141 20.3203 35.1406 20.2109 34.8672L24.5312 29.8906C24.7682 29.9635 24.987 30 25.1875 30C25.4974 30 25.7891 29.9362 26.0625 29.8086C26.3359 29.681 26.582 29.5078 26.8008 29.2891L30.875 31.3398C30.875 31.6315 30.9342 31.9095 31.0527 32.1738C31.1712 32.4382 31.3262 32.666 31.5176 32.8574C31.709 33.0488 31.9414 33.2038 32.2148 33.3223C32.4883 33.4408 32.7708 33.5 33.0625 33.5C33.2266 33.5 33.3906 33.4818 33.5547 33.4453C33.7188 33.4089 33.8737 33.3542 34.0195 33.2812C34.1654 33.2083 34.3021 33.1217 34.4297 33.0215C34.5573 32.9212 34.6712 32.8073 34.7715 32.6797C34.8717 32.5521 34.9583 32.4154 35.0312 32.2695C35.1042 32.1237 35.1589 31.9688 35.1953 31.8047C35.2318 31.6406 35.25 31.4766 35.25 31.3125V31.2031L40.9375 26.3086C41.2109 26.4362 41.5026 26.5 41.8125 26.5C42.4141 26.5 42.929 26.2858 43.3574 25.8574C43.7858 25.429 44 24.9141 44 24.3125C44 23.7109 43.7858 23.196 43.3574 22.7676C42.929 22.3392 42.4141 22.125 41.8125 22.125Z" fill="#456CB3"/>
<circle cx="30" cy="30" r="29.5" stroke="#456CB3"/>
</svg>
