<svg width="64" height="64" viewBox="0 0 64 64" fill="none" xmlns="http://www.w3.org/2000/svg">
<path d="M63.992 31.945C63.992 38.2631 62.1155 44.4393 58.5997 49.6927C55.084 54.946 50.0869 59.0404 44.2404 61.4583C38.3939 63.8761 31.9605 64.5087 25.7539 63.2761C19.5473 62.0435 13.8462 59.0011 9.37143 54.5335C4.89671 50.0659 1.84938 44.3739 0.614809 38.1771C-0.619764 31.9804 0.0138633 25.5573 2.43557 19.7202C4.85727 13.883 8.95827 8.89386 14.22 5.3837C19.4817 1.87354 25.6678 9.94887e-07 31.996 9.94887e-07C36.1981 -0.00104615 40.3592 0.82452 44.2416 2.42953C48.124 4.03455 51.6516 6.38756 54.623 9.35413C57.5943 12.3207 59.951 15.8427 61.5586 19.7189C63.1662 23.5951 63.9931 27.7496 63.992 31.945Z" fill="url(#paint0_linear)"/>
<g style="mix-blend-mode:multiply">
<g style="mix-blend-mode:multiply">
<path d="M64.001 31.945C63.9974 28.9794 63.581 26.0287 62.7636 23.1776C59.6662 20.0533 53.9423 14.3465 53.7827 14.2031C53.3762 13.7295 52.8762 13.3448 52.314 13.0729C51.7518 12.801 51.1394 12.6478 50.5152 12.6229C49.8911 12.598 49.2684 12.7019 48.6863 12.9281C48.1041 13.1543 47.575 13.498 47.1319 13.9376C46.6888 14.3772 46.3413 14.9034 46.1111 15.4832C45.8809 16.063 45.773 16.684 45.794 17.3073C45.8151 17.9306 45.9647 18.5429 46.2335 19.1059C46.5023 19.6689 46.8846 20.1705 47.3563 20.5793C47.5362 20.8024 47.7396 21.0055 47.963 21.185C48.003 21.2408 48.0588 21.2887 48.1067 21.3445L47.9231 21.9821H22.8963L13.7557 12.8003L10.3789 20.7228L12.7738 22.3168V50.6911C12.4684 50.8653 12.2144 51.117 12.0378 51.4208C11.8612 51.7245 11.7681 52.0694 11.768 52.4207C11.7696 52.7569 11.8551 53.0875 12.0168 53.3825C12.1785 53.6775 12.4112 53.9277 12.694 54.1104C12.8521 54.352 13.0587 54.5582 13.3007 54.7161C13.4588 54.9577 13.6654 55.164 13.9074 55.3219C14.0641 55.5673 14.2742 55.7744 14.5221 55.9276C14.6759 56.1727 14.8833 56.3798 15.1288 56.5333C15.2803 56.7803 15.4882 56.9878 15.7355 57.1391C15.887 57.386 16.0949 57.5936 16.3422 57.7448C16.4937 57.9917 16.7016 58.1993 16.9489 58.3506C17.0996 58.6071 17.3106 58.8232 17.5636 58.9802C17.7151 59.2271 17.923 59.4347 18.1704 59.586C18.3218 59.8329 18.5297 60.0405 18.7771 60.1917C18.9285 60.4386 19.1365 60.6462 19.3838 60.7975C19.53 61.0292 19.7264 61.2253 19.9586 61.3713C20.0133 61.4532 20.0747 61.5305 20.1422 61.6025C24.9956 63.539 30.2505 64.2586 35.447 63.6984C40.6435 63.1382 45.6233 61.3152 49.9509 58.3889C54.2785 55.4626 57.8219 51.5221 60.2712 46.9122C62.7205 42.3023 64.0011 37.1633 64.001 31.945Z" fill="#B3B3B3"/>
</g>
</g>
<path d="M50.2938 23.3132H13.7555C13.5892 23.2951 13.4355 23.2163 13.3238 23.092C13.2122 22.9677 13.1504 22.8067 13.1504 22.6397C13.1504 22.4727 13.2122 22.3116 13.3238 22.1873C13.4355 22.063 13.5892 21.9843 13.7555 21.9662H50.2938C50.4601 21.9843 50.6138 22.063 50.7255 22.1873C50.8371 22.3116 50.8989 22.4727 50.8989 22.6397C50.8989 22.8067 50.8371 22.9677 50.7255 23.092C50.6138 23.2163 50.4601 23.2951 50.2938 23.3132Z" fill="#F6D047"/>
<path d="M50.2929 33.1485H13.7546C13.5767 33.1485 13.4061 33.0779 13.2804 32.9524C13.1546 32.8268 13.084 32.6565 13.084 32.479C13.084 32.3014 13.1546 32.1311 13.2804 32.0055C13.4061 31.88 13.5767 31.8094 13.7546 31.8094H50.2929C50.4708 31.8094 50.6413 31.88 50.7671 32.0055C50.8928 32.1311 50.9635 32.3014 50.9635 32.479C50.9635 32.6565 50.8928 32.8268 50.7671 32.9524C50.6413 33.0779 50.4708 33.1485 50.2929 33.1485Z" fill="#F6D047"/>
<path d="M50.2938 42.9918H13.7555C13.5892 42.9737 13.4355 42.8949 13.3238 42.7706C13.2122 42.6463 13.1504 42.4852 13.1504 42.3183C13.1504 42.1513 13.2122 41.9902 13.3238 41.8659C13.4355 41.7416 13.5892 41.6629 13.7555 41.6448H50.2938C50.4601 41.6629 50.6138 41.7416 50.7255 41.8659C50.8371 41.9902 50.8989 42.1513 50.8989 42.3183C50.8989 42.4852 50.8371 42.6463 50.7255 42.7706C50.6138 42.8949 50.4601 42.9737 50.2938 42.9918Z" fill="#F6D047"/>
<path fill-rule="evenodd" clip-rule="evenodd" d="M35.3493 40.3934L38.4946 32.2159L44.7054 40.3377L50.3813 20.7228C50.4554 20.4659 50.4243 20.1902 50.2948 19.9563C50.1653 19.7224 49.948 19.5494 49.6908 19.4754C49.4336 19.4014 49.1574 19.4325 48.9231 19.5618C48.6888 19.6911 48.5156 19.908 48.4415 20.1648L43.9071 35.9381L37.9039 28.1272L33.4653 39.6682C33.4618 39.6773 33.4584 39.6865 33.4552 39.6957L32.2603 42.8005L30.4643 41.4218C30.4119 41.3619 30.3523 41.3083 30.2869 41.2622L24.6988 37.014L15.5902 45.885C15.496 45.9777 15.4213 46.0881 15.3703 46.2099C15.3192 46.3317 15.293 46.4623 15.293 46.5943C15.293 46.7263 15.3192 46.857 15.3703 46.9788C15.4213 47.1006 15.496 47.211 15.5902 47.3037C15.6828 47.4005 15.7944 47.4773 15.918 47.5294C16.0416 47.5815 16.1745 47.6078 16.3086 47.6066C16.4448 47.6105 16.5803 47.5864 16.7067 47.5356C16.833 47.4849 16.9476 47.4086 17.0431 47.3117L24.8904 39.6682L29.0502 42.8446L29.0352 42.8643L33.1784 46.0285L35.3497 40.3935L35.3493 40.3934Z" fill="white"/>
<path d="M51.4676 52.4206L43.4846 49.0651L44.4824 51.4562H15.496C15.3197 51.1566 15.0696 50.907 14.7696 50.7309V19.7504L17.1166 20.7227L13.7557 12.7524L10.3789 20.7227L12.7738 19.7504V50.6911C12.5005 50.8403 12.2658 51.0511 12.0883 51.3067C11.9108 51.5624 11.7955 51.8558 11.7515 52.1637C11.7075 52.4716 11.736 52.7855 11.8347 53.0805C11.9335 53.3755 12.0998 53.6434 12.3204 53.863C12.541 54.0826 12.8098 54.2479 13.1056 54.3456C13.4013 54.4433 13.7158 54.4708 14.0241 54.426C14.3324 54.3811 14.6259 54.2651 14.8814 54.0872C15.1369 53.9093 15.3474 53.6743 15.496 53.401H44.4984L43.5005 55.7921L51.4676 52.4206Z" fill="#F3701E"/>
<path fill-rule="evenodd" clip-rule="evenodd" d="M47.7637 20.8732C48.5121 21.3727 49.3922 21.6394 50.2925 21.6394C51.498 21.6394 52.6541 21.1618 53.5073 20.3116C54.3604 19.4613 54.8407 18.3078 54.8428 17.1043C54.8444 16.2054 54.5789 15.3263 54.0799 14.5781C53.5808 13.83 52.8707 13.2464 52.0394 12.9013C51.2081 12.5563 50.2929 12.4652 49.4097 12.6395C48.5265 12.8139 47.715 13.246 47.0778 13.881C46.4406 14.5161 46.0064 15.3256 45.8302 16.2071C45.654 17.0885 45.7436 18.0024 46.0878 18.833C46.432 19.6636 47.0152 20.3736 47.7637 20.8732ZM48.5185 14.4375C49.0436 14.0872 49.661 13.9002 50.2925 13.9002C51.1394 13.9002 51.9516 14.2361 52.5505 14.834C53.1493 15.4319 53.4857 16.2428 53.4857 17.0883C53.4857 17.7189 53.2985 18.3353 52.9476 18.8596C52.5967 19.3838 52.098 19.7925 51.5145 20.0338C51.1932 20.1666 50.8542 20.2455 50.5109 20.269L51.2422 17.7339C51.3088 17.4804 51.2735 17.2111 51.1439 16.9833C51.0144 16.7555 50.8008 16.5872 50.5487 16.5144C50.2967 16.4416 50.0261 16.47 49.7947 16.5936C49.5633 16.7172 49.3895 16.9262 49.3103 17.1759L48.5567 19.7643C48.3693 19.6431 48.1941 19.5019 48.0346 19.3427C47.588 18.8968 47.2839 18.3287 47.1607 17.7103C47.0374 17.0919 47.1007 16.4508 47.3424 15.8683C47.5841 15.2857 47.9933 14.7878 48.5185 14.4375Z" fill="#64B66E"/>
<defs>
<linearGradient id="paint0_linear" x1="31.996" y1="0" x2="31.996" y2="63.89" gradientUnits="userSpaceOnUse">
<stop stop-color="#F2F2F2"/>
<stop offset="1" stop-color="#C9C9C9"/>
</linearGradient>
</defs>
</svg>
