<svg width="60" height="60" viewBox="0 0 60 60" fill="none" xmlns="http://www.w3.org/2000/svg">
<circle cx="30" cy="30" r="29.5" stroke="#456CB3"/>
<g clip-path="url(#clip0)">
<rect width="24" height="24" transform="translate(18 18)" fill="white"/>
<path d="M20.6432 21.4341C20.5229 21.4341 20.4057 21.4827 20.3206 21.5677C20.2361 21.6522 20.1875 21.7701 20.1875 21.8897C20.1875 22.0094 20.2361 22.1273 20.3206 22.2118C20.4057 22.2968 20.5229 22.3454 20.6432 22.3454C20.7629 22.3454 20.8802 22.2968 20.9653 22.2118C21.0503 22.1273 21.0989 22.0094 21.0989 21.8897C21.0989 21.7701 21.0503 21.6522 20.9653 21.5677C20.8802 21.4827 20.7629 21.4341 20.6432 21.4341Z" fill="#456CB3" stroke="#456CB3" stroke-width="0.3"/>
<path d="M22.4235 21.5677C22.3384 21.4827 22.2211 21.4341 22.1014 21.4341C21.9811 21.4341 21.8639 21.4827 21.7788 21.5677C21.6944 21.6522 21.6458 21.7701 21.6458 21.8897C21.6458 22.0094 21.6944 22.1273 21.7788 22.2118C21.8639 22.2968 21.9811 22.3454 22.1014 22.3454C22.2211 22.3454 22.3384 22.2968 22.4235 22.2118C22.5085 22.1273 22.5571 22.0094 22.5571 21.8897C22.5571 21.7701 22.5085 21.6522 22.4235 21.5677Z" fill="#456CB3" stroke="#456CB3" stroke-width="0.3"/>
<path d="M20.6432 29.5442C20.5229 29.5442 20.4057 29.5928 20.3206 29.6779C20.2361 29.7623 20.1875 29.8802 20.1875 29.9999C20.1875 30.1196 20.2361 30.2375 20.3206 30.3219C20.4057 30.407 20.5229 30.4556 20.6432 30.4556C20.7629 30.4556 20.8802 30.407 20.9653 30.3219C21.0503 30.2375 21.0989 30.1196 21.0989 29.9999C21.0989 29.8802 21.0503 29.7623 20.9653 29.6779C20.8802 29.5928 20.7629 29.5442 20.6432 29.5442Z" fill="#456CB3" stroke="#456CB3" stroke-width="0.3"/>
<path d="M22.4235 29.6779C22.3384 29.5928 22.2211 29.5442 22.1014 29.5442C21.9811 29.5442 21.8639 29.5928 21.7788 29.6779C21.6944 29.7623 21.6458 29.8802 21.6458 29.9999C21.6458 30.1202 21.6944 30.2375 21.7788 30.3219C21.8639 30.407 21.9811 30.4556 22.1014 30.4556C22.2211 30.4556 22.3384 30.407 22.4235 30.3219C22.5085 30.2375 22.5571 30.1202 22.5571 29.9999C22.5571 29.8802 22.5085 29.7623 22.4235 29.6779Z" fill="#456CB3" stroke="#456CB3" stroke-width="0.3"/>
<path d="M20.6432 37.6544C20.5229 37.6544 20.4057 37.703 20.3206 37.7881C20.2361 37.8725 20.1875 37.9904 20.1875 38.1101C20.1875 38.2304 20.2361 38.3477 20.3206 38.4321C20.4057 38.5172 20.5229 38.5658 20.6432 38.5658C20.7629 38.5658 20.8802 38.5172 20.9653 38.4321C21.0503 38.3477 21.0989 38.2298 21.0989 38.1101C21.0989 37.9904 21.0503 37.8732 20.9653 37.7881C20.8802 37.703 20.7629 37.6544 20.6432 37.6544Z" fill="#456CB3" stroke="#456CB3" stroke-width="0.3"/>
<path d="M22.4235 37.7881C22.3384 37.703 22.2211 37.6544 22.1014 37.6544C21.9811 37.6544 21.8639 37.703 21.7788 37.7881C21.6944 37.8732 21.6458 37.9904 21.6458 38.1101C21.6458 38.2298 21.6944 38.3477 21.7788 38.4321C21.8639 38.5172 21.9811 38.5658 22.1014 38.5658C22.2211 38.5658 22.3384 38.5172 22.4235 38.4321C22.5085 38.3477 22.5571 38.2304 22.5571 38.1101C22.5571 37.9904 22.5085 37.8725 22.4235 37.7881Z" fill="#456CB3" stroke="#456CB3" stroke-width="0.3"/>
<path d="M41.5443 25.4757C41.796 25.4757 42 25.2717 42 25.02V18.7595C42 18.5078 41.796 18.3038 41.5443 18.3038H18.4557C18.204 18.3038 18 18.5078 18 18.7595V25.02C18 25.2717 18.204 25.4757 18.4557 25.4757H19.7845V26.414H18.4557C18.204 26.414 18 26.6181 18 26.8697V33.1303C18 33.3819 18.204 33.586 18.4557 33.586H19.7845V34.5243H18.4557C18.204 34.5243 18 34.7283 18 34.98V41.2405C18 41.4922 18.204 41.6962 18.4557 41.6962H41.5443C41.796 41.6962 42 41.4922 42 41.2405V34.98C42 34.7283 41.796 34.5243 41.5443 34.5243H40.2155V33.586H41.5443C41.796 33.586 42 33.3819 42 33.1303V26.8697C42 26.6181 41.796 26.414 41.5443 26.414H40.2155V25.4757H41.5443ZM41.0886 24.5643H38.7089V19.2152H41.0886V24.5643ZM35.4272 24.5643V19.2152H37.7975V24.5643H35.4272ZM18.9114 19.2152H34.5158V24.5643H18.9114V19.2152ZM18.9114 27.3254H34.5158V32.6746H18.9114V27.3254ZM35.4272 32.6746V27.3254H37.7975V32.6746H35.4272ZM18.9114 35.4357H34.5158V40.7848H18.9114V35.4357ZM37.7975 35.4357V40.7848H35.4272V35.4357H37.7975ZM41.0886 40.7848H38.7089V35.4357H41.0886V40.7848ZM39.3041 34.5243H20.6959V33.586H39.3041V34.5243ZM41.0886 32.6746H38.7089V27.3254H41.0886V32.6746ZM39.3041 26.414H20.6959V25.4757H39.3041V26.414Z" fill="#456CB3" stroke="#456CB3" stroke-width="0.3"/>
</g>
<defs>
<clipPath id="clip0">
<rect width="24" height="24" fill="white" transform="translate(18 18)"/>
</clipPath>
</defs>
</svg>
