<svg width="10" height="20" viewBox="0 0 10 20" fill="none" xmlns="http://www.w3.org/2000/svg">
<path fill-rule="evenodd" clip-rule="evenodd" d="M8.75065 4.99998V14.5833C8.75065 16.425 7.25898 17.9166 5.41732 17.9166C3.57565 17.9166 2.08398 16.425 2.08398 14.5833V4.16665C2.08398 3.01665 3.01732 2.08331 4.16732 2.08331C5.31732 2.08331 6.25065 3.01665 6.25065 4.16665V12.9166C6.25065 13.375 5.87565 13.75 5.41732 13.75C4.95898 13.75 4.58398 13.375 4.58398 12.9166V4.99998H3.33398V12.9166C3.33398 14.0666 4.26732 15 5.41732 15C6.56732 15 7.50065 14.0666 7.50065 12.9166V4.16665C7.50065 2.32498 6.00898 0.833313 4.16732 0.833313C2.32565 0.833313 0.833984 2.32498 0.833984 4.16665V14.5833C0.833984 17.1166 2.88398 19.1666 5.41732 19.1666C7.95065 19.1666 10.0007 17.1166 10.0007 14.5833V4.99998H8.75065Z" fill="#456CB3"/>
</svg>
