<svg width="14" height="14" viewBox="0 0 14 14" fill="none" xmlns="http://www.w3.org/2000/svg">
<path fill-rule="evenodd" clip-rule="evenodd" d="M10.2321 9.03189C10.0872 8.88665 9.89041 8.80503 9.68521 8.80503H9.46658C9.40677 8.80503 9.3493 8.78184 9.30625 8.74032C9.21812 8.65534 9.21206 8.51667 9.28795 8.42058C9.98902 7.53287 10.4059 6.41385 10.4059 5.20297C10.4059 2.32933 8.07662 0 5.20297 0C2.32933 0 0 2.32933 0 5.20297C0 8.07662 2.32933 10.4059 5.20297 10.4059C6.41385 10.4059 7.53287 9.98902 8.42058 9.28795C8.51667 9.21206 8.65534 9.21812 8.74032 9.30625C8.78184 9.3493 8.80503 9.40677 8.80503 9.46658V9.68521C8.80503 9.89041 8.88665 10.0872 9.03189 10.2321L12.2104 13.4043C12.5402 13.7334 13.0742 13.7331 13.4037 13.4037C13.7331 13.0742 13.7334 12.5402 13.4043 12.2104L10.2321 9.03189ZM5.20313 8.80501C3.20999 8.80501 1.60107 7.19609 1.60107 5.20295C1.60107 3.20981 3.20999 1.60089 5.20313 1.60089C7.19627 1.60089 8.80519 3.20981 8.80519 5.20295C8.80519 7.19609 7.19627 8.80501 5.20313 8.80501Z" fill="#3A4D75"/>
</svg>
