<svg width="18" height="19" viewBox="0 0 18 19" fill="none" xmlns="http://www.w3.org/2000/svg">
<path d="M5.865 2.00001C6.616 2.00001 7.305 2.20201 7.934 2.60901C8.258 2.52901 8.645 2.48801 9.091 2.48801C10.937 2.48801 12.509 3.15801 13.808 4.49601C15.107 5.83501 15.756 7.45801 15.756 9.36601C15.756 9.83201 15.705 10.319 15.604 10.827C15.868 11.416 16 12.014 16 12.621C16 13.718 15.62 14.657 14.858 15.436C14.097 16.217 13.19 16.609 12.133 16.609C11.4928 16.6064 10.8641 16.4383 10.308 16.121C9.781 16.202 9.375 16.243 9.091 16.243C7.244 16.243 5.666 15.573 4.358 14.234C3.05 12.895 2.395 11.272 2.395 9.36601C2.395 8.91901 2.446 8.46401 2.547 7.99601C2.18054 7.37962 1.99126 6.67406 2 5.95701C2 4.86101 2.376 3.92801 3.126 3.15801C3.876 2.38601 4.79 2.00001 5.865 2.00001ZM9 12.53C8.594 12.53 8.271 12.469 8.025 12.347C7.762 12.205 7.58 12.063 7.478 11.922C7.235 11.475 7.102 11.241 7.082 11.222C7.01006 10.9933 6.88538 10.7847 6.718 10.613C6.54141 10.481 6.3284 10.4066 6.108 10.4C5.9788 10.3955 5.85004 10.4175 5.72965 10.4646C5.60926 10.5117 5.4998 10.583 5.408 10.674C5.32104 10.7561 5.25186 10.8552 5.20473 10.9651C5.1576 11.075 5.13352 11.1934 5.134 11.313C5.134 11.699 5.278 12.114 5.562 12.561C5.825 12.966 6.191 13.302 6.658 13.564C7.306 13.91 8.108 14.083 9.062 14.083C9.852 14.083 10.552 13.961 11.162 13.718C11.771 13.434 12.217 13.079 12.501 12.653C12.805 12.186 12.957 11.678 12.957 11.131C12.957 10.686 12.877 10.279 12.715 9.91401C12.552 9.61001 12.299 9.33601 11.953 9.09401C11.5888 8.86966 11.2012 8.6859 10.797 8.54601C10.3146 8.39748 9.82735 8.26541 9.336 8.15001C9.15678 8.12259 8.97892 8.08689 8.803 8.04301L8.393 7.93701C8.21389 7.88323 8.04042 7.81223 7.875 7.72501C7.71702 7.64783 7.58088 7.53231 7.479 7.38901C7.42761 7.33713 7.38757 7.27515 7.3614 7.20698C7.33523 7.13881 7.32352 7.06594 7.327 6.99301C7.327 6.75001 7.469 6.53801 7.753 6.35401C8.018 6.15101 8.402 6.04901 8.909 6.04901C9.417 6.04901 9.793 6.14101 10.036 6.32201C10.299 6.54701 10.492 6.80001 10.613 7.08401C10.776 7.34801 10.908 7.53001 11.009 7.63101C11.1757 7.75529 11.3792 7.82007 11.587 7.81501C11.7183 7.81485 11.8481 7.78759 11.9684 7.73494C12.0887 7.68228 12.1968 7.60537 12.286 7.50901C12.3756 7.42258 12.4463 7.3185 12.4937 7.20335C12.541 7.0882 12.5639 6.96448 12.561 6.84001C12.561 6.63801 12.489 6.37301 12.347 6.04901C12.1634 5.78175 11.9489 5.53707 11.708 5.32001C11.424 5.09601 11.049 4.90301 10.581 4.74101C10.0766 4.59591 9.55387 4.52418 9.029 4.52801C8.299 4.52801 7.649 4.63801 7.081 4.86301C6.515 5.06301 6.078 5.36801 5.774 5.77401C5.47011 6.17681 5.30929 6.66949 5.317 7.17401C5.317 7.70101 5.46 8.15801 5.743 8.54401C6.089 8.94901 6.473 9.23201 6.899 9.39501C7.387 9.61901 7.975 9.80201 8.665 9.94301C8.786 9.96401 8.935 9.99901 9.106 10.049L9.563 10.172L9.882 10.247C10.166 10.35 10.399 10.49 10.581 10.674C10.764 10.815 10.855 11.028 10.855 11.313C10.855 11.659 10.693 11.942 10.369 12.166C10.005 12.409 9.548 12.53 9 12.53ZM5.865 9.27402e-06C4.256 9.27402e-06 2.812 0.610009 1.691 1.76501C0.586 2.89901 0 4.35001 0 5.95701C0 6.78901 0.156 7.57601 0.466 8.30501C0.419553 8.65711 0.396169 9.01186 0.396 9.36701C0.396 11.805 1.249 13.914 2.928 15.634C4.621 17.366 6.696 18.244 9.092 18.244C9.346 18.244 9.639 18.224 9.988 18.184C10.678 18.467 11.397 18.61 12.134 18.61C13.722 18.61 15.159 17.996 16.291 16.833C16.8396 16.2785 17.273 15.621 17.5663 14.8983C17.8596 14.1756 18.007 13.4019 18 12.622C18 11.945 17.889 11.273 17.668 10.618C17.7262 10.2035 17.7559 9.78555 17.757 9.36701C17.757 6.93001 16.911 4.82301 15.244 3.10401C13.559 1.36901 11.489 0.489009 9.092 0.489009C8.82454 0.488621 8.55722 0.501303 8.291 0.527009C7.5307 0.175764 6.70251 -0.00414409 5.865 9.27402e-06Z" fill="#456CB3"/>
</svg>
