<svg width="24" height="24" viewBox="0 0 24 24" fill="none" xmlns="http://www.w3.org/2000/svg">
<rect width="24" height="24" fill="white"/>
<path d="M0 0V24H24V0H0Z" fill="#456CB3"/>
<path d="M7.09938 2.88C7.31548 3.51531 7.54155 4.15254 7.75787 4.788C8.0868 5.7433 8.29192 6.46283 8.38488 6.954V9.729H9.41087V6.954L10.6439 2.88H9.60738L8.90838 5.5695L8.17788 2.88H7.09938ZM12.0179 4.563C11.5572 4.563 11.198 4.73744 10.9424 5.0865C10.7456 5.3444 10.6529 5.74393 10.6529 6.28951V8.076C10.6529 8.61846 10.7456 9.02062 10.9424 9.276C11.198 9.62406 11.5572 9.7995 12.0179 9.7995C12.4813 9.7995 12.842 9.62406 13.0979 9.276C13.2918 9.02062 13.3844 8.61846 13.3844 8.076V6.28951C13.3844 5.74398 13.2918 5.3444 13.0979 5.0865C12.842 4.73744 12.4813 4.563 12.0179 4.563ZM14.1449 4.6245V8.66101C14.1449 9.02128 14.1778 9.26528 14.2289 9.42C14.3211 9.67851 14.5252 9.7995 14.8229 9.7995C15.1602 9.7995 15.5123 9.59449 15.8804 9.1725V9.729H16.8044V4.6245H15.8804V8.526C15.6755 8.81565 15.4803 8.958 15.2954 8.958C15.1712 8.958 15.0998 8.88518 15.0794 8.742C15.0682 8.71176 15.0674 8.59872 15.0674 8.382V4.6245H14.1449ZM12.0179 5.3955C12.3161 5.3955 12.4589 5.6313 12.4589 6.1035V8.2515C12.4589 8.72382 12.3161 8.958 12.0179 8.958C11.7197 8.958 11.5769 8.72382 11.5769 8.2515V6.1035C11.5769 5.6313 11.7197 5.3955 12.0179 5.3955ZM11.6474 10.5645C9.87064 10.5645 8.08749 10.5776 6.32537 10.7745C5.5325 10.8631 4.87412 11.4586 4.68887 12.264C4.42529 13.4111 4.42188 14.6621 4.42188 15.843V15.9285C4.42199 17.0846 4.42854 18.3022 4.68587 19.422C4.87112 20.2274 5.531 20.823 6.32388 20.9115C8.08805 21.1087 9.87158 21.12 11.6504 21.12H11.9939H12.3374C14.1161 21.12 15.8998 21.1087 17.6639 20.9115C18.4567 20.823 19.1166 20.2274 19.3019 19.422C19.5617 18.2911 19.5658 17.0588 19.5659 15.8925V15.843C19.5659 14.6621 19.5685 13.4111 19.3049 12.264C19.1197 11.4586 18.4612 10.8631 17.6684 10.7745C15.9061 10.5777 14.1232 10.5645 12.3464 10.5645H11.9969H11.6474ZM5.55138 12.4485H8.74337V13.4025H7.64688V19.227H6.62838V13.4025H5.55138V12.4485ZM12.2999 12.4485H13.2149V14.6625C13.5104 14.2988 13.8248 14.115 14.1614 14.115C14.5257 14.115 14.7691 14.3068 14.8919 14.685C14.9525 14.8883 14.9849 15.2226 14.9849 15.7005V17.7105C14.9849 18.178 14.9525 18.5149 14.8919 18.729C14.7691 19.1045 14.5257 19.296 14.1614 19.296C13.836 19.296 13.5206 19.1164 13.2149 18.738V19.227H12.2999V12.4485ZM17.0744 14.115C17.5335 14.115 17.8995 14.2868 18.1559 14.6325C18.3475 14.8879 18.4379 15.2822 18.4379 15.822V16.8675H16.6079V17.763C16.6079 18.2305 16.76 18.465 17.0744 18.465C17.3 18.465 17.4331 18.3424 17.4854 18.0975C17.4937 18.0476 17.5049 17.8436 17.5049 17.4765H18.4379V17.6115C18.4379 17.9059 18.427 18.1097 18.4184 18.201C18.3879 18.4043 18.3169 18.5866 18.2054 18.7485C17.9524 19.1152 17.5763 19.296 17.0984 19.296C16.6196 19.296 16.2545 19.1236 15.9899 18.7785C15.7954 18.5257 15.6974 18.1287 15.6974 17.592V15.822C15.6974 15.2822 15.785 14.8879 15.9794 14.6325C16.2441 14.2868 16.6073 14.115 17.0744 14.115ZM8.87687 14.1765H9.79038V17.895C9.79038 18.1095 9.79089 18.2203 9.79938 18.2505C9.82164 18.3923 9.89157 18.4635 10.0139 18.4635C10.1976 18.4635 10.3897 18.3242 10.5929 18.0375V14.1765H11.5079V19.227H10.5929V18.6765C10.2291 19.0938 9.88383 19.296 9.54738 19.296C9.25254 19.296 9.04794 19.1767 8.95638 18.921C8.90655 18.768 8.87687 18.5275 8.87687 18.171V14.1765ZM13.6709 14.9385C13.5204 14.9385 13.368 15.0095 13.2149 15.1605V18.2385C13.368 18.3915 13.5204 18.4635 13.6709 18.4635C13.9348 18.4635 14.0699 18.2403 14.0699 17.784V15.627C14.0699 15.1707 13.9348 14.9385 13.6709 14.9385ZM17.0684 14.9385C16.7623 14.9385 16.6079 15.1719 16.6079 15.639V16.1055H17.5229V15.639C17.5229 15.1718 17.3714 14.9385 17.0684 14.9385Z" fill="white"/>
</svg>
