<svg width="22" height="22" viewBox="0 0 22 22" fill="none" xmlns="http://www.w3.org/2000/svg">
<path d="M11.0559 0.266357C16.9727 0.266357 21.7422 5.10034 21.7164 11.1246C21.6949 17.0328 16.9168 21.8839 10.9141 21.8195C5.04453 21.7507 0.30508 16.9167 0.365236 10.9269C0.421096 5.05308 5.13906 0.274951 11.0559 0.266357ZM11.0645 1.10854C5.71485 1.08706 1.26328 5.4398 1.20742 10.9312C1.14727 16.5214 5.61602 20.93 10.9484 20.9773C16.3453 21.0289 20.8441 16.6546 20.8785 11.1417C20.9086 5.573 16.5172 1.10854 11.0645 1.10854Z" fill="#E0E5FA"/>
<path d="M10.6563 6.77612C12.3879 6.77612 13.8231 6.8062 15.2496 6.88354C15.6063 6.90073 15.9672 6.90933 16.311 7.02104C17.0113 7.25737 17.3379 7.79878 17.4926 8.47769C17.643 9.1437 17.6688 9.8269 17.6817 10.5058C17.7074 11.7089 17.716 12.9121 17.5699 14.1066C17.5227 14.5019 17.4195 14.88 17.2348 15.2324C16.9641 15.7394 16.5086 15.9886 15.9586 16.0703C15.3785 16.1519 14.7899 16.1648 14.2012 16.1863C11.8035 16.2765 9.40587 16.2507 7.00822 16.1562C6.60861 16.139 6.209 16.1132 5.81368 16.0273C5.21642 15.8941 4.78243 15.5718 4.56329 14.9746C4.31837 14.3085 4.29259 13.6167 4.25392 12.925C4.18517 11.6015 4.20236 10.2781 4.34415 8.95894C4.38712 8.57222 4.48595 8.19839 4.65782 7.85034C4.9629 7.22729 5.5129 6.97808 6.17032 6.92651C7.76447 6.8019 9.3629 6.78472 10.6563 6.77612ZM9.54767 13.4578C10.8711 12.7316 12.1602 12.0269 13.4793 11.305C13.1356 11.116 12.8262 10.9441 12.5125 10.7765C11.5844 10.2695 10.6606 9.75815 9.73243 9.25112C9.65939 9.21245 9.54767 9.10073 9.54767 9.31558C9.54767 10.682 9.54767 12.0484 9.54767 13.4578Z" fill="#E0E5FA"/>
</svg>
